<svg xmlns:xlink="http://www.w3.org/1999/xlink" xmlns="http://www.w3.org/2000/svg" version="1.1" height="48" width="48" y="0" x="0"><defs><linearGradient id="color-1" gradientUnits="userSpaceOnUse" y2="60.14868" x2="55.81483" y1="11.13278" x1="15.46662"><stop stop-opacity="0.14" stop-color="#000000" offset="0"></stop><stop stop-opacity="0" stop-color="#000000" offset="1"></stop></linearGradient><filter id="dropshadow"><feColorMatrix type="matrix" values="0 0 0 0 .05  0 0 0 0 .15  0 0 0 0 .1  0 0 0 .8 0"></feColorMatrix> <feOffset dx="0" dy="1"></feOffset> <feGaussianBlur stdDeviation="1"></feGaussianBlur> <feComposite in="SourceGraphic"></feComposite></filter></defs><g mix-blend-mode="normal" text-anchor="start" font-size="none" font-weight="none" font-family="none" stroke-dashoffset="0" stroke-dasharray="" stroke-miterlimit="none" stroke-linejoin="miter" stroke-linecap="butt" stroke-width="none" stroke="none" fill="none"><g stroke-miterlimit="4" stroke-width="1" stroke="none" fill="#000000" id="svg2"><g id="g10"><g font-size="14" font-weight="400" font-family="&quot;Open Sans&quot;,sans-serif" id="g580"></g><g font-size="40" font-weight="normal" font-family="Sans" id="flowRoot4411"></g></g></g><path filter="url(#dropshadow)" font-size="12" font-weight="normal" font-family="sans-serif" stroke-miterlimit="10" stroke-width="1" fill="#ffffff" d="M4,24c0,-11.04569 8.95431,-20 20,-20c11.04569,0 20,8.95431 20,20c0,11.04569 -8.95431,20 -20,20c-11.04569,0 -20,-8.95431 -20,-20z"></path><path font-size="12" font-weight="normal" font-family="sans-serif" stroke-miterlimit="10" stroke-width="1" fill="url(#color-1)" d="M16.76881,23.85214c2.38993,-4.84261 6.40845,-8.78166 5.34885,-11.41797c0,0 -1.04753,-1.04753 -1.04753,-1.04753c-0.30793,-0.30793 -0.1616,-0.43015 1.76402,0.1867c1.14873,0.36798 2.36955,1.2709 3.53908,2.44043c0,0 16.53127,16.53127 16.53127,16.53127c-2.33375,6.74179 -8.1722,11.84735 -15.33622,13.13756l-9.77158,-9.77158c-3.01745,-3.01745 -2.81747,-6.43277 -1.0279,-10.05887l4.80354,4.80354c0,0 0,0 0,-0.00001z"></path><path font-size="14" font-weight="400" font-family="&quot;Open Sans&quot;,sans-serif" stroke-miterlimit="4" stroke-width="0" stroke="none" fill="#ff782a" d="M22.10137,36.86722c-7.27236,-3.65618 -7.73578,-8.14555 -5.33256,-13.01507c2.44944,-4.9632 6.6096,-8.97727 5.26013,-11.61249c-0.20866,-0.40746 -2.77212,-1.81227 0.80521,-0.66632c3.4248,1.09709 7.49037,6.94903 8.92707,10.44499c3.19294,7.76946 -4.51586,14.89575 -5.0262,14.64811c-0.51031,-0.24764 0.69321,-0.30441 1.43465,-2.17056c0.79137,-1.99188 -0.29608,-1.3603 -0.29608,-1.3603c0,0 -1.04365,1.26568 -1.81856,1.26155c-0.87268,-0.00464 -1.89294,0.25815 -1.02183,-2.76953c0.87108,-3.02769 -0.52731,-6.97717 -0.52731,-6.97717c0,0 -1.63448,1.59083 -2.99182,4.11268c-2.39349,4.44699 -1.81713,5.51069 0.80789,7.34603c0.46859,0.32762 -0.22058,0.75808 -0.22058,0.75808z"></path></g></svg>