<?xml version="1.0" encoding="UTF-8" standalone="no"?>
<!-- Created with Inkscape (http://www.inkscape.org/) -->

<svg
   xmlns:dc="http://purl.org/dc/elements/1.1/"
   xmlns:cc="http://creativecommons.org/ns#"
   xmlns:rdf="http://www.w3.org/1999/02/22-rdf-syntax-ns#"
   xmlns:svg="http://www.w3.org/2000/svg"
   xmlns="http://www.w3.org/2000/svg"
   xmlns:sodipodi="http://sodipodi.sourceforge.net/DTD/sodipodi-0.dtd"
   xmlns:inkscape="http://www.inkscape.org/namespaces/inkscape"
   width="7267.5049mm"
   height="6604.2368mm"
   viewBox="0 0 7267.5049 6604.2368"
   version="1.1"
   id="svg967"
   inkscape:version="0.92.3 (2405546, 2018-03-11)"
   sodipodi:docname="cup_without_border.svg">
  <defs
     id="defs961" />
  <sodipodi:namedview
     id="base"
     pagecolor="#ffffff"
     bordercolor="#666666"
     borderopacity="1.0"
     inkscape:pageopacity="0.0"
     inkscape:pageshadow="2"
     inkscape:zoom="0.01"
     inkscape:cx="91.552761"
     inkscape:cy="10286.187"
     inkscape:document-units="mm"
     inkscape:current-layer="layer1"
     showgrid="false"
     inkscape:window-width="1280"
     inkscape:window-height="664"
     inkscape:window-x="-4"
     inkscape:window-y="-4"
     inkscape:window-maximized="1"
     showguides="false"
     inkscape:lockguides="false"
     fit-margin-top="0"
     fit-margin-left="0"
     fit-margin-right="0"
     fit-margin-bottom="0" />
  <metadata
     id="metadata964">
    <rdf:RDF>
      <cc:Work
         rdf:about="">
        <dc:format>image/svg+xml</dc:format>
        <dc:type
           rdf:resource="http://purl.org/dc/dcmitype/StillImage" />
        <dc:title></dc:title>
      </cc:Work>
    </rdf:RDF>
  </metadata>
  <g
     inkscape:label="Layer 1"
     inkscape:groupmode="layer"
     id="layer1"
     transform="translate(19767.261,16267.999)">
    <path
       style="fill:#000000;fill-opacity:1;stroke:#000000;stroke-width:520.96252441;stroke-miterlimit:4;stroke-dasharray:none;stroke-opacity:1"
       d="m -18134.337,-13236.503 a 1737.2326,2272.6996 0 0 0 1733.527,2135.761 1737.2326,2272.6996 0 0 0 1731.995,-2135.761 z"
       id="path4610"
       inkscape:connector-curvature="0" />
    <ellipse
       style="fill:#000000;fill-opacity:1;stroke:#000000;stroke-width:224.83227539;stroke-miterlimit:4;stroke-dasharray:none;stroke-opacity:1"
       id="path4615"
       cx="-16400.607"
       cy="-10806.02"
       rx="1687.6063"
       ry="224.01854" />
    <ellipse
       style="fill:none;fill-opacity:1;stroke:#000000;stroke-width:290.38952637;stroke-miterlimit:4;stroke-dasharray:none;stroke-opacity:1"
       id="path4617"
       transform="matrix(0.87692758,-0.48062254,0.66889547,0.74335647,0,0)"
       ry="564.12109"
       rx="1249.0291"
       cy="-18462.494"
       cx="-2857.7695" />
    <path
       style="fill:#000000;fill-opacity:1;stroke:#000000;stroke-width:166.14717102;stroke-linecap:round;stroke-linejoin:round;stroke-miterlimit:4;stroke-dasharray:none;stroke-opacity:1"
       id="path4627-77"
       d="m -17660.281,-13697.124 c -30.945,-16.188 -60.463,-36.791 -89.45,-58.679 -33.742,-28.536 -67.648,-57.361 -98.111,-92.429 -19.362,-20.404 -37.66,-42.457 -55.679,-65.008 -11.303,-13.39 -20.145,-29.998 -27.811,-47.488 -9.625,-20.078 -14.27,-42.353 -16.732,-65.911 -1.119,-17.764 -2.237,-35.748 -0.06,-53.471 1.119,-8.597 3.915,-21.36 5.596,-29.741 7.555,-32.531 21.321,-60.79 36.597,-87.223 22.104,-38.734 49.019,-71.363 76.434,-102.73 29.658,-33.198 62.024,-61.401 94.888,-88.11 37.269,-30.405 10.912,-9.032 83.614,-66.438 4.474,-3.346 8.505,-6.679 12.702,-10.019 3.915,-3.092 15.724,-12.373 11.807,-9.279 -48.572,38.279 -59.372,49.17 -35.365,26.226 16.675,-19.023 33.351,-38.053 48.292,-59.705 13.206,-19.128 23.502,-41.383 32.343,-64.71 7.219,-18.883 9.457,-39.703 10.744,-60.686 2.238,-27.841 -3.356,-54.322 -10.016,-80.292 -12.703,-46.921 -31.057,-90.007 -50.922,-131.688 -15.333,-32.857 -34.862,-61.286 -52.266,-91.908 0,0 57.174,-46.937 57.174,-46.937 v 0 c 16.675,31.519 34.637,61.707 50.138,94.381 19.809,42.365 38.612,85.848 53.049,132.259 7.61,26.364 14.549,53.81 12.87,82.661 -1.119,21.967 -2.797,44.11 -9.792,64.145 -8.618,24.324 -19.083,47.479 -32.4,67.492 -14.494,22.789 -31.393,41.698 -47.957,61.54 -30.329,31.166 -7.554,8.569 -76.724,64.06 -3.916,3.062 -7.666,5.998 -11.528,8.98 -3.915,3.221 -16.62,13.02 -12.478,9.631 13.765,-11.385 27.643,-22.448 41.465,-33.627 5.034,-4.047 -10.017,8.152 -14.997,12.228 -33.128,26.207 -65.584,54.315 -95.605,86.975 -27.084,30.403 -53.72,62.311 -75.499,100.242 -15.053,25.345 -28.315,52.396 -36.765,83.288 -1.119,4.137 -5.034,23.743 -5.652,28.244 -2.237,16.858 -1.678,34.138 -0.383,51.097 2.237,22.289 6.155,43.573 15.612,62.337 7.667,16.471 16.228,32.345 26.636,45.753 17.068,23.282 34.974,45.218 53.497,66.314 29.714,34.999 62.578,64.545 96.164,91.977 29.714,21.614 60.156,42.57 93.132,52.94 0,0 -56.334,53.309 -56.334,53.309 z"
       inkscape:connector-curvature="0" />
    <path
       style="fill:#000000;fill-opacity:1;stroke:#000000;stroke-width:166.14717102;stroke-linecap:round;stroke-linejoin:round;stroke-miterlimit:4;stroke-dasharray:none;stroke-opacity:1"
       id="path4627-77-3"
       d="m -16841.049,-13670.578 c -30.946,-16.187 -60.464,-36.79 -89.45,-58.678 -33.743,-28.536 -67.648,-57.362 -98.112,-92.429 -19.362,-20.404 -37.66,-42.457 -55.679,-65.008 -11.303,-13.391 -20.144,-29.999 -27.811,-47.488 -9.625,-20.078 -14.269,-42.354 -16.732,-65.912 -1.118,-17.764 -2.237,-35.747 -0.06,-53.471 1.119,-8.596 3.915,-21.359 5.596,-29.74 7.555,-32.531 21.32,-60.79 36.597,-87.223 22.104,-38.735 49.019,-71.363 76.434,-102.73 29.658,-33.198 62.024,-61.402 94.888,-88.11 37.269,-30.406 10.912,-9.032 83.614,-66.438 4.474,-3.347 8.505,-6.679 12.702,-10.019 3.915,-3.093 15.724,-12.373 11.807,-9.279 -48.572,38.279 -59.371,49.169 -35.365,26.225 16.675,-19.022 33.351,-38.053 48.292,-59.704 13.206,-19.129 23.502,-41.383 32.343,-64.711 7.219,-18.883 9.458,-39.702 10.745,-60.686 2.237,-27.841 -3.356,-54.321 -10.017,-80.291 -12.702,-46.922 -31.057,-90.007 -50.922,-131.688 -15.333,-32.858 -34.862,-61.287 -52.266,-91.909 0,0 57.174,-46.937 57.174,-46.937 v 0 c 16.675,31.519 34.638,61.708 50.138,94.382 19.809,42.364 38.612,85.848 53.049,132.259 7.61,26.364 14.549,53.81 12.87,82.66 -1.119,21.967 -2.797,44.11 -9.792,64.146 -8.618,24.323 -19.083,47.479 -32.4,67.491 -14.494,22.789 -31.393,41.699 -47.957,61.541 -30.329,31.166 -7.554,8.569 -76.724,64.059 -3.916,3.062 -7.667,5.998 -11.528,8.98 -3.915,3.222 -16.62,13.02 -12.478,9.632 13.765,-11.386 27.643,-22.448 41.465,-33.628 5.034,-4.046 -10.017,8.153 -14.997,12.229 -33.128,26.207 -65.584,54.314 -95.605,86.975 -27.084,30.403 -53.721,62.31 -75.499,100.241 -15.053,25.346 -28.315,52.396 -36.765,83.289 -1.119,4.137 -5.034,23.743 -5.652,28.244 -2.237,16.857 -1.678,34.138 -0.383,51.097 2.237,22.289 6.155,43.572 15.612,62.336 7.666,16.471 16.228,32.346 26.636,45.754 17.068,23.282 34.974,45.217 53.496,66.313 29.715,34.999 62.579,64.546 96.165,91.978 29.714,21.614 60.156,42.57 93.132,52.94 0,0 -56.334,53.308 -56.334,53.308 z"
       inkscape:connector-curvature="0" />
    <path
       style="fill:#000000;fill-opacity:1;stroke:#000000;stroke-width:166.14717102;stroke-linecap:round;stroke-linejoin:round;stroke-miterlimit:4;stroke-dasharray:none;stroke-opacity:1"
       id="path4627-77-5"
       d="m -15970.504,-13695.039 c -30.946,-16.187 -60.464,-36.79 -89.45,-58.679 -33.743,-28.536 -67.648,-57.361 -98.112,-92.428 -19.361,-20.404 -37.66,-42.458 -55.678,-65.008 -11.304,-13.391 -20.145,-29.999 -27.812,-47.488 -9.625,-20.078 -14.269,-42.354 -16.732,-65.912 -1.118,-17.763 -2.236,-35.747 -0.04,-53.471 1.118,-8.596 3.916,-21.359 5.596,-29.74 7.554,-32.531 21.321,-60.79 36.597,-87.223 22.103,-38.735 49.02,-71.363 76.434,-102.73 29.658,-33.198 62.023,-61.402 94.888,-88.111 37.268,-30.405 10.913,-9.031 83.613,-66.437 4.475,-3.347 8.506,-6.679 12.703,-10.019 3.915,-3.092 15.724,-12.373 11.807,-9.279 -48.572,38.279 -59.371,49.169 -35.365,26.225 16.675,-19.022 33.351,-38.053 48.292,-59.705 13.206,-19.128 23.502,-41.382 32.343,-64.71 7.219,-18.883 9.458,-39.702 10.745,-60.686 2.236,-27.841 -3.358,-54.321 -10.017,-80.291 -12.702,-46.922 -31.057,-90.007 -50.922,-131.688 -15.333,-32.858 -34.863,-61.287 -52.266,-91.909 0,0 57.174,-46.937 57.174,-46.937 v 0 c 16.675,31.519 34.638,61.708 50.138,94.382 19.809,42.364 38.612,85.848 53.049,132.259 7.61,26.363 14.549,53.81 12.87,82.66 -1.118,21.967 -2.794,44.11 -9.792,64.145 -8.618,24.324 -19.082,47.48 -32.401,67.492 -14.493,22.789 -31.392,41.698 -47.956,61.541 -30.33,31.166 -7.554,8.569 -76.725,64.059 -3.915,3.062 -7.665,5.998 -11.526,8.98 -3.916,3.222 -16.62,13.02 -12.479,9.632 13.765,-11.386 27.643,-22.448 41.465,-33.628 5.034,-4.046 -10.017,8.153 -14.998,12.229 -33.127,26.207 -65.583,54.314 -95.605,86.975 -27.083,30.403 -53.719,62.31 -75.498,100.241 -15.053,25.346 -28.315,52.396 -36.765,83.289 -1.118,4.137 -5.034,23.743 -5.652,28.244 -2.236,16.857 -1.677,34.138 -0.385,51.097 2.236,22.289 6.155,43.572 15.612,62.336 7.667,16.471 16.228,32.346 26.636,45.754 17.068,23.281 34.975,45.217 53.497,66.313 29.714,34.999 62.578,64.546 96.164,91.977 29.714,21.615 60.156,42.571 93.132,52.94 0,0 -56.334,53.309 -56.334,53.309 z"
       inkscape:connector-curvature="0" />
    <path
       style="fill:#000000;fill-opacity:1;stroke:#000000;stroke-width:166.14717102;stroke-linecap:round;stroke-linejoin:round;stroke-miterlimit:4;stroke-dasharray:none;stroke-opacity:1"
       id="path4627-77-5-0"
       d="m -15141.45,-13695.965 c -30.945,-16.187 -60.464,-36.79 -89.45,-58.679 -33.743,-28.535 -67.648,-57.361 -98.112,-92.428 -19.361,-20.404 -37.66,-42.457 -55.678,-65.008 -11.304,-13.391 -20.145,-29.998 -27.812,-47.488 -9.625,-20.078 -14.269,-42.354 -16.731,-65.912 -1.118,-17.763 -2.236,-35.747 -0.04,-53.471 1.118,-8.596 3.915,-21.359 5.596,-29.74 7.554,-32.531 21.32,-60.79 36.596,-87.223 22.104,-38.735 49.02,-71.363 76.434,-102.73 29.658,-33.198 62.025,-61.402 94.889,-88.11 37.268,-30.406 10.912,-9.032 83.613,-66.438 4.475,-3.347 8.505,-6.679 12.703,-10.019 3.915,-3.093 15.724,-12.373 11.807,-9.279 -48.572,38.279 -59.372,49.169 -35.366,26.225 16.675,-19.022 33.352,-38.053 48.292,-59.704 13.206,-19.129 23.502,-41.383 32.344,-64.711 7.219,-18.883 9.457,-39.702 10.744,-60.686 2.236,-27.841 -3.358,-54.321 -10.016,-80.291 -12.703,-46.922 -31.058,-90.007 -50.923,-131.688 -15.332,-32.858 -34.862,-61.287 -52.265,-91.909 0,0 57.173,-46.937 57.173,-46.937 v 0 c 16.676,31.519 34.638,61.708 50.139,94.382 19.809,42.364 38.611,85.848 53.048,132.259 7.61,26.364 14.55,53.81 12.87,82.661 -1.118,21.966 -2.794,44.109 -9.792,64.145 -8.617,24.323 -19.082,47.479 -32.4,67.491 -14.493,22.789 -31.392,41.699 -47.956,61.541 -30.33,31.166 -7.555,8.569 -76.725,64.059 -3.915,3.062 -7.666,5.998 -11.527,8.98 -3.915,3.222 -16.62,13.02 -12.479,9.632 13.766,-11.386 27.643,-22.448 41.465,-33.628 5.034,-4.046 -10.016,8.153 -14.997,12.229 -33.127,26.207 -65.583,54.314 -95.605,86.975 -27.083,30.403 -53.72,62.311 -75.499,100.242 -15.053,25.345 -28.315,52.395 -36.764,83.288 -1.119,4.137 -5.035,23.743 -5.652,28.244 -2.236,16.857 -1.677,34.138 -0.385,51.097 2.236,22.289 6.155,43.572 15.612,62.336 7.666,16.471 16.229,32.346 26.636,45.754 17.068,23.282 34.974,45.217 53.497,66.313 29.714,34.999 62.578,64.546 96.165,91.978 29.713,21.614 60.155,42.57 93.131,52.939 0,0 -56.333,53.309 -56.333,53.309 z"
       inkscape:connector-curvature="0" />
  </g>
</svg>
