<?xml version="1.0" encoding="UTF-8" standalone="no"?>
<!-- Created with Inkscape (http://www.inkscape.org/) -->

<svg
   xmlns:dc="http://purl.org/dc/elements/1.1/"
   xmlns:cc="http://creativecommons.org/ns#"
   xmlns:rdf="http://www.w3.org/1999/02/22-rdf-syntax-ns#"
   xmlns:svg="http://www.w3.org/2000/svg"
   xmlns="http://www.w3.org/2000/svg"
   xmlns:xlink="http://www.w3.org/1999/xlink"
   xmlns:sodipodi="http://sodipodi.sourceforge.net/DTD/sodipodi-0.dtd"
   xmlns:inkscape="http://www.inkscape.org/namespaces/inkscape"
   width="210mm"
   height="297mm"
   viewBox="0 0 210 297"
   version="1.1"
   id="svg8"
   inkscape:version="0.92.3 (2405546, 2018-03-11)"
   sodipodi:docname="launcher.svg">
  <defs
     id="defs2">
    <inkscape:perspective
       sodipodi:type="inkscape:persp3d"
       inkscape:vp_x="364.96921 : 160.02768 : 1"
       inkscape:vp_y="94.842307 : 995.49231 : 0"
       inkscape:vp_z="574.02259 : 140.11079 : 1"
       inkscape:persp3d-origin="464.80121 : 100.79236 : 1"
       id="perspective4556" />
  </defs>
  <sodipodi:namedview
     id="base"
     pagecolor="#ffffff"
     bordercolor="#666666"
     borderopacity="1.0"
     inkscape:pageopacity="0.0"
     inkscape:pageshadow="2"
     inkscape:zoom="0.48575198"
     inkscape:cx="-58.434531"
     inkscape:cy="893.40902"
     inkscape:document-units="mm"
     inkscape:current-layer="layer1"
     showgrid="false"
     inkscape:window-width="1280"
     inkscape:window-height="664"
     inkscape:window-x="-4"
     inkscape:window-y="-4"
     inkscape:window-maximized="1"
     showguides="false" />
  <metadata
     id="metadata5">
    <rdf:RDF>
      <cc:Work
         rdf:about="">
        <dc:format>image/svg+xml</dc:format>
        <dc:type
           rdf:resource="http://purl.org/dc/dcmitype/StillImage" />
        <dc:title />
      </cc:Work>
    </rdf:RDF>
  </metadata>
  <g
     inkscape:label="Layer 1"
     inkscape:groupmode="layer"
     id="layer1">
    <rect
       id="rect3713"
       width="122.46088"
       height="110.36565"
       x="31.329168"
       y="34.897488"
       style="fill:none;fill-opacity:1;stroke:#000000;stroke-width:10.06799984;stroke-miterlimit:4;stroke-dasharray:none;stroke-opacity:1"
       ry="12.095238" />
    <rect
       style="fill:#000000;fill-opacity:1;stroke:none;stroke-width:13.33637714;stroke-miterlimit:4;stroke-dasharray:none;stroke-opacity:1"
       id="rect4520"
       width="52.193764"
       height="9.9626913"
       x="46.113098"
       y="52.827377"
       ry="4.9813457" />
    <rect
       style="fill:#000000;fill-opacity:1;stroke:none;stroke-width:13.33637714;stroke-miterlimit:4;stroke-dasharray:none;stroke-opacity:1"
       id="rect4520-3"
       width="52.193764"
       height="9.9626913"
       x="46.113098"
       y="66.712883"
       ry="4.9813457" />
    <rect
       style="fill:#000000;fill-opacity:1;stroke:none;stroke-width:13.33637714;stroke-miterlimit:4;stroke-dasharray:none;stroke-opacity:1"
       id="rect4520-3-5"
       width="52.193764"
       height="9.9626913"
       x="46.113098"
       y="81.034256"
       ry="4.9813457" />
    <ellipse
       style="fill:#000000;fill-opacity:1;stroke:none;stroke-width:2.57542992;stroke-miterlimit:4;stroke-dasharray:none;stroke-opacity:1"
       id="path4552"
       cx="121.39143"
       cy="71.860855"
       rx="16.825689"
       ry="15.947578" />
    <path
       sodipodi:type="star"
       style="fill:#000000;fill-opacity:1;stroke:#000000;stroke-width:4.0999999;stroke-miterlimit:4;stroke-dasharray:none;stroke-opacity:1"
       id="path4554"
       sodipodi:sides="5"
       sodipodi:cx="105.07738"
       sodipodi:cy="113.53036"
       sodipodi:r1="32.549427"
       sodipodi:r2="17.841116"
       sodipodi:arg1="0.90398801"
       sodipodi:arg2="1.5323065"
       inkscape:flatsided="false"
       inkscape:rounded="0"
       inkscape:randomized="0"
       d="m 125.20858,139.10769 -19.44467,-7.74943 -18.791133,9.22184 1.361408,-20.88769 -14.577272,-15.02172 20.28607,-5.159875 9.781887,-18.505777 11.17607,17.69871 20.62281,3.584522 -13.37888,16.09828 z"
       inkscape:transform-center-x="0.038908424"
       inkscape:transform-center-y="-1.7316595"
       transform="matrix(0.52603481,0,0,0.51893819,86.661262,166.46507)" />
    <rect
       style="fill:#000000;fill-opacity:1;stroke:none;stroke-width:17.80639267;stroke-miterlimit:4;stroke-dasharray:none;stroke-opacity:1"
       id="rect4520-1"
       width="93.04538"
       height="9.9626913"
       x="46.113098"
       y="96.817787"
       ry="4.9813457" />
    <rect
       style="fill:#000000;fill-opacity:1;stroke:none;stroke-width:17.80639267;stroke-miterlimit:4;stroke-dasharray:none;stroke-opacity:1"
       id="rect4520-3-9"
       width="93.04538"
       height="9.9626913"
       x="46.113098"
       y="110.70327"
       ry="4.9813457" />
    <rect
       style="fill:#000000;fill-opacity:1;stroke:none;stroke-width:17.80639267;stroke-miterlimit:4;stroke-dasharray:none;stroke-opacity:1"
       id="rect4520-3-5-8"
       width="93.04538"
       height="9.9626913"
       x="46.113098"
       y="125.02465"
       ry="4.9813457" />
    <rect
       id="rect3713-3"
       width="122.46088"
       height="110.36565"
       x="-192.25937"
       y="20.776808"
       style="fill:none;fill-opacity:1;stroke:#000000;stroke-width:10.06799984;stroke-miterlimit:4;stroke-dasharray:none;stroke-opacity:1"
       ry="12.095238" />
    <path
       style="fill:#000000;fill-opacity:1;stroke:#000000;stroke-width:9.50017643;stroke-miterlimit:4;stroke-dasharray:none;stroke-opacity:1"
       d="m -167.51565,71.024649 a 31.679853,41.444532 0 0 0 31.61227,38.947351 31.679853,41.444532 0 0 0 31.58435,-38.947351 z"
       id="path4610"
       inkscape:connector-curvature="0" />
    <ellipse
       style="fill:#000000;fill-opacity:1;stroke:#000000;stroke-width:4.0999999;stroke-miterlimit:4;stroke-dasharray:none;stroke-opacity:1"
       id="path4615"
       cx="-135.89967"
       cy="115.34651"
       rx="30.774879"
       ry="4.0851607" />
    <ellipse
       style="fill:none;fill-opacity:1;stroke:#000000;stroke-width:5.29548979;stroke-miterlimit:4;stroke-dasharray:none;stroke-opacity:1"
       id="path4617"
       transform="matrix(0.87692758,-0.48062254,0.66889548,0.74335647,0,0)"
       ry="10.287207"
       rx="22.777061"
       cy="25.349503"
       cx="-142.17847" />
    <path
       style="fill:none;stroke:#000000;stroke-width:1.165;stroke-linecap:butt;stroke-linejoin:miter;stroke-opacity:1;stroke-miterlimit:4;stroke-dasharray:none"
       d="m -148.69986,205.49239 -12.52782,-17.9747 c 0.47292,-2.14927 2.65479,-2.81348 3.81281,-4.35751 0.24359,-0.32479 0.31949,-0.75157 0.54469,-1.08937 0.49955,-0.74933 0.8403,-0.5602 1.63407,-1.08938 1.12244,-0.7483 -0.0359,-1.07144 1.08937,-1.63406 0.1624,-0.0812 0.38229,0.0812 0.54469,0 1.14479,-0.5724 -0.0554,-0.51699 1.08938,-1.08938 0.16239,-0.0812 0.4163,0.12838 0.54468,0 0.12839,-0.12838 -0.12838,-0.4163 0,-0.54469 0.12839,-0.12838 0.41631,0.12839 0.54469,0 0.12839,-0.12838 -0.0812,-0.38229 0,-0.54469 1.13343,-2.26686 -0.0376,0.58229 1.08938,-0.54469 0.12838,-0.12838 0,-0.36312 0,-0.54468 0.36312,-0.18157 0.75157,-0.31949 1.08937,-0.54469 0.42729,-0.28486 0.63006,-0.85972 1.08938,-1.08938 0.1624,-0.0812 0.4163,0.12839 0.54469,0 1.12698,-1.12698 -1.72217,0.0441 0.54469,-1.08937 0.16239,-0.0812 0.36312,0 0.54468,0 0.18157,0 0.54469,-0.18157 0.54469,0 0,0.18156 -0.54469,0.18156 -0.54469,0 0,-0.25677 0.36313,-0.36313 0.54469,-0.54469 -5.57595,-3.71731 -1.44067,-0.28684 -4.90219,-4.9022 -2.67698,-3.5693 -0.50021,0.0445 -3.26813,-2.72344 -0.46289,-0.46289 -0.62648,-1.17116 -1.08937,-1.63406 -0.57416,-0.57415 -1.72836,-0.41377 -2.17876,-1.08938 -0.20142,-0.30213 0.11483,-0.74488 0,-1.08937 -0.0812,-0.24359 -0.36312,-0.36313 -0.54469,-0.54469 -0.18156,-0.18156 -0.31502,-0.42986 -0.54468,-0.54469 -0.1624,-0.0812 -0.41631,0.12839 -0.54469,0 -0.12839,-0.12838 0.0812,-0.38229 0,-0.54469 -1.13343,-2.26686 0.0376,0.58229 -1.08938,-0.54469 -0.0545,-0.0545 -0.0545,-1.57959 0,-1.63406 0.12839,-0.12838 0.36313,0 0.54469,0 1.08938,0 0.18156,-0.18156 0.54469,0.54469 0.11483,0.22966 0.36312,0.36312 0.54469,0.54469 l 27.2344,-11.43845 -14.16189,13.6172 c 0.90781,1.08938 1.78965,2.20094 2.72344,3.26813 0.67633,0.77295 1.4525,1.4525 2.17875,2.17875 0.18157,0.18156 0.42986,0.31503 0.54469,0.54469 0.80146,1.60291 -1.26181,-0.71713 0.54469,1.08937 0.18156,0.18157 0.31503,0.42986 0.54469,0.54469 0.75132,0.37566 0.48721,-0.65964 1.08937,0.54469 0.0812,0.1624 -0.0812,0.38229 0,0.54469 0.29029,0.58057 0.7991,0.5088 1.08938,1.08938 0.1624,0.32478 -0.16239,0.76458 0,1.08937 0.22966,0.45932 0.85972,0.63006 1.08938,1.08938 0.0812,0.16239 -0.12839,0.4163 0,0.54469 0.12838,0.12838 0.4163,-0.12839 0.54469,0 0.27234,0.27234 -0.27235,1.36172 0,1.63406 0.12838,0.12838 0.4163,-0.12838 0.54468,0 0.12839,0.12838 -0.0812,0.38229 0,0.54469 0.11483,0.22966 0.42986,0.31503 0.54469,0.54469 0.34258,0.68516 -0.78228,1.08937 0.54469,1.08937 l -15.25127,9.2597 z"
       id="path4621"
       inkscape:connector-curvature="0" />
    <path
       style="fill:none;fill-opacity:1;stroke:#000000;stroke-width:1.76499999;stroke-linecap:round;stroke-linejoin:round;stroke-miterlimit:4;stroke-dasharray:none;stroke-opacity:1"
       id="path4623"
       d="m -216.45555,191.26513 c -0.77286,-0.92544 -1.47822,-1.90438 -2.23616,-2.84171 -0.76801,-0.9639 -1.52616,-1.93445 -2.34866,-2.8529 -0.4383,-0.56058 -0.94938,-1.06877 -1.35464,-1.65463 -0.17313,-0.36146 -0.41507,-0.68055 -0.56577,-1.05242 -0.13622,-0.40489 -0.13723,-0.83755 -0.14204,-1.26021 -0.0374,-0.71886 0.17663,-1.39351 0.41837,-2.05966 0.30424,-0.81407 0.79792,-1.53117 1.29586,-2.23581 0.50113,-0.68705 1.0584,-1.33165 1.62273,-1.9671 0.54486,-0.56694 1.10703,-1.11661 1.66371,-1.67207 0.60152,-0.56586 1.18191,-1.15373 1.77802,-1.72513 0.43943,-0.41268 0.82653,-0.87789 1.2142,-1.3387 0.30159,-0.33615 0.56592,-0.69167 0.7196,-1.11792 0.18244,-0.76271 0.16679,-1.55671 0.18554,-2.33617 0.077,-1.17715 -0.0403,-2.33522 -0.25545,-3.49037 -0.20347,-1.18777 -0.64463,-2.29277 -1.18656,-3.36089 -0.37909,-0.71603 -0.76355,-1.4252 -1.24923,-2.0742 -0.20476,-0.34242 -0.48419,-0.62418 -0.65666,-0.9852 0,0 2.47029,-1.39685 2.47029,-1.39685 v 0 c 0.15518,0.3479 0.43341,0.61624 0.60449,0.95696 0.45374,0.68664 0.80986,1.42673 1.19322,2.15422 0.54057,1.09488 0.98455,2.2262 1.2085,3.43291 0.23605,1.16294 0.35243,2.33473 0.30994,3.52337 0.007,0.78969 0.0254,1.58702 -0.0835,2.37078 -0.10801,0.4736 -0.33334,0.86815 -0.66815,1.22319 -0.39833,0.47528 -0.80949,0.94149 -1.24062,1.38692 -0.61264,0.55349 -1.17712,1.15931 -1.78534,1.7176 -0.55586,0.5555 -1.11016,1.10841 -1.66912,1.66051 -0.58002,0.6176 -1.13,1.26758 -1.6454,1.94004 -0.49184,0.68842 -1.0036,1.37311 -1.31596,2.16722 -0.24419,0.61961 -0.4705,1.26729 -0.4222,1.94341 0.0102,0.38883 0.006,0.78537 0.11334,1.16254 0.13254,0.3572 0.36785,0.65991 0.51483,1.01149 0.37387,0.58781 0.85573,1.10292 1.26286,1.66742 0.79723,0.94176 1.55042,1.91656 2.30639,2.89143 0.75089,0.94929 1.47539,1.92492 2.36268,2.7549 0,0 -2.41915,1.45703 -2.41915,1.45703 z"
       inkscape:connector-curvature="0" />
    <path
       style="fill:none;fill-opacity:1;stroke:#000000;stroke-width:1.76499999;stroke-linecap:round;stroke-linejoin:round;stroke-miterlimit:4;stroke-dasharray:none;stroke-opacity:1"
       id="path4625"
       d="m -191.37227,192.0229 c -0.69651,-0.33489 -1.35612,-0.74891 -1.99949,-1.17667 -0.76295,-0.58852 -1.45768,-1.26814 -2.11403,-1.97279 -0.58564,-0.66059 -1.18037,-1.30948 -1.72312,-2.0063 -0.38659,-0.44978 -0.756,-0.91307 -1.06497,-1.41981 -0.29036,-0.48422 -0.30915,-1.05381 -0.34402,-1.6019 -0.0766,-0.55609 0.0214,-1.08359 0.15736,-1.61905 0.16367,-0.51145 0.5032,-0.94204 0.82901,-1.36088 0.54097,-0.59939 1.10621,-1.17673 1.67024,-1.75438 0.71688,-0.69639 1.4546,-1.3715 2.20703,-2.02928 0.55351,-0.49183 1.14255,-0.94097 1.70662,-1.42034 0.38223,-0.32213 0.75411,-0.65321 1.10678,-1.00744 0.37679,-0.36808 0.63,-0.79987 0.79069,-1.29764 0.16639,-0.55978 0.32556,-1.12192 0.43985,-1.69487 0.0908,-0.46871 0.10608,-0.9461 0.11368,-1.42197 -0.0179,-0.4033 0.008,-0.7971 0.0753,-1.19406 0.0827,-0.34152 0.19789,-0.67034 0.2544,-1.01826 0.0306,-0.352 0.0502,-0.69965 0.12374,-1.04588 0.0776,-0.3401 0.0984,-0.68848 0.11209,-1.03588 0.0307,-0.34762 0.007,-0.66584 -0.18346,-0.96374 -0.14051,-0.25664 -0.35365,-0.42043 -0.59348,-0.57323 -0.36406,-0.20747 -0.68265,-0.47541 -1.01927,-0.72311 -0.44166,-0.25051 -0.85074,-0.55532 -1.29431,-0.80102 -0.47065,-0.15548 -0.81574,-0.50094 -1.19334,-0.80193 -0.4411,-0.31476 -0.87422,-0.64253 -1.26402,-1.01966 -0.44661,-0.30784 -0.75985,-0.75563 -1.14277,-1.13047 -0.23184,-0.25278 -0.46557,-0.50437 -0.72521,-0.72885 0,0 2.40977,-1.49153 2.40977,-1.49153 v 0 c 0.24948,0.24003 0.48674,0.49222 0.71482,0.75268 0.3674,0.38671 0.69549,0.81235 1.13393,1.12552 0.38946,0.36609 0.81968,0.68761 1.25327,0.99926 0.36589,0.30009 0.73715,0.57708 1.17765,0.7615 0.43802,0.26865 0.86056,0.5628 1.30149,0.82739 0.34174,0.23854 0.67227,0.49012 1.03698,0.69402 0.27315,0.17498 0.49578,0.40061 0.65979,0.68291 0.20588,0.34597 0.29601,0.70842 0.25532,1.11245 -0.008,0.36015 -0.0183,0.72202 -0.0834,1.07732 -0.0711,0.34333 -0.1475,0.67499 -0.13705,1.0298 -0.0395,0.35389 -0.10877,0.70062 -0.25565,1.02762 -0.0617,0.38764 -0.13302,0.76493 -0.10065,1.16093 -0.01,0.49197 -0.021,0.98707 -0.10441,1.47306 -0.11399,0.58084 -0.27033,1.15301 -0.43604,1.72077 -0.14058,0.53183 -0.33478,1.00935 -0.71806,1.41637 -0.35545,0.36748 -0.71854,0.72158 -1.11984,1.03889 -0.57215,0.49479 -1.17799,0.94707 -1.75308,1.4381 -0.75877,0.64747 -1.49107,1.32361 -2.21709,2.0076 -0.54642,0.56437 -1.07943,1.1415 -1.62562,1.70566 -0.31927,0.39199 -0.63517,0.79981 -0.86835,1.24881 -0.13279,0.51493 -0.28983,1.00773 -0.21145,1.54944 0.026,0.50233 0.0465,1.02338 0.29957,1.47207 0.29469,0.50156 0.63142,0.97433 1.01144,1.41593 0.51692,0.70225 1.10597,1.33859 1.6726,2.0005 0.65759,0.67533 1.33186,1.34824 2.08655,1.91453 0.65219,0.41402 1.321,0.83326 2.06073,1.07105 0,0 -2.36851,1.58676 -2.36851,1.58676 z"
       inkscape:connector-curvature="0" />
    <path
       style="fill:#000000;fill-opacity:1;stroke:#000000;stroke-width:0.99152207;stroke-linecap:round;stroke-linejoin:round;stroke-miterlimit:4;stroke-dasharray:none;stroke-opacity:1"
       id="path4627"
       d="m -160.63657,-12.30914 c -0.56431,-0.350174 -1.1026,-0.795871 -1.63119,-1.269387 -0.61533,-0.617312 -1.23362,-1.240891 -1.78915,-1.999504 -0.35307,-0.441395 -0.68676,-0.918479 -1.01534,-1.406322 -0.20613,-0.289672 -0.36736,-0.648953 -0.50717,-1.027308 -0.17551,-0.434347 -0.26021,-0.916234 -0.30511,-1.425864 -0.0204,-0.38428 -0.0408,-0.773321 -10e-4,-1.156739 0.0204,-0.185965 0.0714,-0.462066 0.10205,-0.643378 0.13776,-0.703737 0.38879,-1.315059 0.66737,-1.886888 0.40308,-0.837944 0.89391,-1.543803 1.39383,-2.222359 0.54084,-0.718179 1.13106,-1.328301 1.73037,-1.906092 0.67962,-0.657756 0.19899,-0.195388 1.52476,-1.437249 0.0816,-0.0724 0.1551,-0.144488 0.23164,-0.216743 0.0714,-0.06689 0.28674,-0.267656 0.21531,-0.200732 -0.88575,0.828086 -1.08269,1.063686 -0.64492,0.567334 0.30409,-0.41151 0.60819,-0.823195 0.88065,-1.29159 0.24082,-0.413798 0.42858,-0.895233 0.58981,-1.399879 0.13164,-0.40849 0.17246,-0.858882 0.19593,-1.312815 0.0408,-0.602288 -0.0612,-1.175138 -0.18266,-1.736948 -0.23164,-1.015052 -0.56635,-1.947117 -0.92861,-2.848809 -0.2796,-0.710807 -0.63574,-1.325812 -0.9531,-1.988256 0,0 1.0426,-1.015389 1.0426,-1.015389 v 0 c 0.30409,0.681851 0.63165,1.334925 0.91432,2.041753 0.36123,0.91648 0.70411,1.857154 0.96738,2.861165 0.13878,0.570326 0.26532,1.16407 0.2347,1.788194 -0.0204,0.475214 -0.051,0.954233 -0.17857,1.387652 -0.15715,0.5262 -0.34798,1.02712 -0.59084,1.46005 -0.2643,0.492993 -0.57247,0.902058 -0.87453,1.331306 -0.55308,0.674219 -0.13776,0.185376 -1.39913,1.385796 -0.0714,0.06624 -0.1398,0.129758 -0.21021,0.194265 -0.0714,0.0697 -0.30308,0.281661 -0.22756,0.208363 0.25103,-0.246309 0.5041,-0.485621 0.75615,-0.727464 0.0918,-0.08754 -0.18266,0.176364 -0.27348,0.264542 -0.60411,0.566931 -1.19597,1.174981 -1.74344,1.88153 -0.49389,0.657705 -0.97963,1.347964 -1.37678,2.168526 -0.27451,0.548295 -0.51635,1.13348 -0.67044,1.801779 -0.0204,0.08949 -0.0918,0.513628 -0.10306,0.611005 -0.0408,0.364675 -0.0306,0.738505 -0.007,1.105373 0.0408,0.482175 0.11225,0.942609 0.28471,1.348525 0.1398,0.356316 0.29593,0.699736 0.48573,0.98979 0.31124,0.503653 0.63778,0.978191 0.97555,1.43456 0.54186,0.757133 1.14116,1.39631 1.75364,1.989745 0.54185,0.467583 1.09698,0.920923 1.69833,1.145246 0,0 -1.02729,1.153216 -1.02729,1.153216 z"
       inkscape:connector-curvature="0" />
    <path
       style="fill:#0000ff;fill-opacity:1;stroke:#000000;stroke-width:0.91849279;stroke-linecap:round;stroke-linejoin:round;stroke-miterlimit:4;stroke-dasharray:none;stroke-opacity:1"
       id="path4627-5"
       d="m -146.05836,-12.168646 c -0.56946,-0.297776 -1.11266,-0.676779 -1.64607,-1.07944 -0.62094,-0.524938 -1.24487,-1.055205 -1.80546,-1.700302 -0.35629,-0.375344 -0.69303,-0.781038 -1.0246,-1.195882 -0.20801,-0.246326 -0.37072,-0.551844 -0.5118,-0.873582 -0.17711,-0.369352 -0.26258,-0.779132 -0.30789,-1.212502 -0.0206,-0.326776 -0.0412,-0.657602 -10e-4,-0.983647 0.0206,-0.158137 0.072,-0.392923 0.10298,-0.547104 0.13901,-0.59843 0.39233,-1.118275 0.67346,-1.604537 0.40675,-0.712556 0.90206,-1.312791 1.40654,-1.889809 0.54577,-0.610711 1.14137,-1.129536 1.74615,-1.620867 0.68582,-0.559331 0.2008,-0.166151 1.53866,-1.222182 0.0824,-0.06157 0.15652,-0.122867 0.23376,-0.18431 0.072,-0.05688 0.28935,-0.227604 0.21727,-0.170695 -0.89383,0.704173 -1.09256,0.904518 -0.6508,0.48244 0.30686,-0.349933 0.61374,-0.700014 0.88868,-1.098319 0.24302,-0.351878 0.43249,-0.761272 0.59519,-1.190404 0.13284,-0.347364 0.17403,-0.73036 0.19772,-1.116368 0.0412,-0.512162 -0.0618,-0.999292 -0.18433,-1.477034 -0.23375,-0.863161 -0.57151,-1.655754 -0.93708,-2.422518 -0.28215,-0.604444 -0.64154,-1.12742 -0.96179,-1.690738 0,0 1.05211,-0.863448 1.05211,-0.863448 v 0 c 0.30686,0.57982 0.63741,1.135169 0.92266,1.736229 0.36452,0.77934 0.71053,1.579253 0.9762,2.433026 0.14005,0.484983 0.26774,0.989881 0.23684,1.520612 -0.0206,0.404104 -0.0515,0.811443 -0.1802,1.180006 -0.15858,0.44746 -0.35115,0.873424 -0.59623,1.241571 -0.26671,0.419222 -0.57769,0.767076 -0.8825,1.132092 -0.55813,0.57333 -0.13902,0.157636 -1.41189,1.178428 -0.072,0.05633 -0.14108,0.110341 -0.21213,0.165195 -0.072,0.05927 -0.30584,0.239514 -0.22964,0.177184 0.25332,-0.209452 0.5087,-0.412953 0.76305,-0.618607 0.0926,-0.07444 -0.18433,0.149973 -0.27597,0.224956 -0.60962,0.482097 -1.20688,0.999159 -1.75934,1.599981 -0.4984,0.559287 -0.98857,1.146256 -1.38934,1.84403 -0.27701,0.46625 -0.52106,0.963869 -0.67656,1.532165 -0.0206,0.0761 -0.0926,0.43677 -0.104,0.519575 -0.0412,0.310106 -0.0309,0.627997 -0.007,0.939967 0.0412,0.410024 0.11327,0.801559 0.28731,1.146734 0.14107,0.302998 0.29863,0.595031 0.49016,0.841682 0.31408,0.428286 0.64359,0.831814 0.98444,1.219894 0.54681,0.643836 1.15157,1.187368 1.76964,1.692003 0.54679,0.397616 1.10698,0.783118 1.71382,0.973872 0,0 -1.03666,0.980653 -1.03666,0.980653 z"
       inkscape:connector-curvature="0" />
    <path
       style="fill:#000000;fill-opacity:1;stroke:#000000;stroke-width:0.8095994;stroke-linecap:round;stroke-linejoin:round;stroke-miterlimit:4;stroke-dasharray:none;stroke-opacity:1"
       d="m -130.63694,-29.697818 -1.04283,0.677003 c 0.31735,0.441657 0.67382,0.851508 0.95343,1.32541 0.36226,0.601165 0.69646,1.222655 0.9281,1.899398 0.12146,0.374562 0.22374,0.756419 0.18294,1.157968 -0.0235,0.30264 -0.0642,0.603109 -0.19585,0.875453 -0.16124,0.33645 -0.34933,0.657451 -0.59015,0.933334 -0.27246,0.312282 -0.57648,0.586624 -0.88057,0.860981 -0.0894,0.06757 -0.13401,0.101529 -0.17001,0.129199 -0.62372,0.387924 -0.60138,0.370817 -1.15652,0.729027 -0.59931,0.385218 -1.1898,0.792158 -1.73064,1.270973 -0.49992,0.452399 -0.99064,0.922818 -1.39372,1.481482 -0.27858,0.381243 -0.52938,0.789038 -0.66714,1.258228 -0.0307,0.120881 -0.0819,0.304955 -0.10232,0.428939 -0.0398,0.255628 -0.0194,0.514859 0.001,0.77106 0.0449,0.339774 0.1299,0.660978 0.30541,0.950559 0.13981,0.252254 0.30082,0.491801 0.50695,0.684929 0.32858,0.325249 0.66237,0.64353 1.01544,0.937811 0.55553,0.505775 1.17371,0.921424 1.78904,1.332989 0.52859,0.315698 1.06711,0.613047 1.63142,0.846512 h 0.004 l 1.02732,-0.768991 c -0.60135,-0.149557 -1.15675,-0.451739 -1.6986,-0.763481 -0.61248,-0.395647 -1.21152,-0.822002 -1.75338,-1.326787 -0.33777,-0.304267 -0.66441,-0.620629 -0.97565,-0.956418 -0.1898,-0.19338 -0.34596,-0.422218 -0.48576,-0.659775 -0.17246,-0.270627 -0.24394,-0.577755 -0.28474,-0.899226 -0.0236,-0.244594 -0.0336,-0.493818 0.007,-0.73695 0.0113,-0.06492 0.0824,-0.347574 0.10283,-0.407238 0.15409,-0.445559 0.39574,-0.835823 0.67025,-1.201376 0.39715,-0.547076 0.88328,-1.007155 1.37717,-1.445652 0.41061,-0.353295 0.84597,-0.669818 1.29295,-0.965374 0.002,-0.0013 0.004,-0.0025 0.006,-0.0038 0.0126,-0.0061 0.12983,-0.07682 0.18914,-0.115417 0.0704,-0.04301 0.13892,-0.08538 0.21032,-0.129544 1.26137,-0.800329 0.8458,-0.474525 1.39888,-0.924031 0.30206,-0.286182 0.61007,-0.558829 0.87436,-0.887511 0.24286,-0.288638 0.43403,-0.622821 0.59118,-0.973643 0.12757,-0.288964 0.15789,-0.608237 0.17829,-0.925065 0.0306,-0.41611 -0.0958,-0.811836 -0.23462,-1.192077 -0.26327,-0.669382 -0.60615,-1.296644 -0.96738,-1.907668 -0.28267,-0.471249 -0.61006,-0.906646 -0.91415,-1.36124 z"
       id="path4627-7"
       inkscape:connector-curvature="0" />
    <path
       style="fill:#000000;fill-opacity:1;stroke:#000000;stroke-width:0.65454632;stroke-linecap:round;stroke-linejoin:round;stroke-miterlimit:4;stroke-dasharray:none;stroke-opacity:1"
       d="m -117.47815,-22.522312 -1.04283,0.442518 c 0.31735,0.288686 0.67382,0.556582 0.95343,0.866344 0.36226,0.392947 0.69646,0.79918 0.9281,1.241527 0.12146,0.24483 0.22374,0.494428 0.18294,0.756897 -0.0235,0.197819 -0.0642,0.394218 -0.19585,0.572234 -0.16124,0.219917 -0.34933,0.429737 -0.59015,0.610066 -0.27246,0.204121 -0.57648,0.383443 -0.88057,0.562776 -0.0894,0.04417 -0.13401,0.06636 -0.17001,0.08445 -0.62372,0.253563 -0.60138,0.242381 -1.15652,0.476523 -0.59931,0.251796 -1.1898,0.517789 -1.73064,0.830763 -0.49992,0.295707 -0.99064,0.603193 -1.39372,0.96836 -0.27858,0.249197 -0.52938,0.515748 -0.66714,0.82243 -0.0307,0.07901 -0.0819,0.199332 -0.10232,0.280374 -0.0398,0.167089 -0.0194,0.336533 0.001,0.503997 0.0449,0.222091 0.1299,0.432043 0.30541,0.621326 0.13981,0.164884 0.30082,0.321462 0.50695,0.447699 0.32858,0.212596 0.66237,0.420639 1.01544,0.612994 0.55553,0.330595 1.17371,0.602281 1.78904,0.871297 0.52859,0.206354 1.06711,0.400714 1.63142,0.553317 h 0.004 l 1.02732,-0.502646 c -0.60135,-0.09776 -1.15675,-0.295276 -1.6986,-0.499044 -0.61248,-0.25861 -1.21152,-0.537294 -1.75338,-0.867244 -0.33777,-0.198882 -0.66441,-0.40567 -0.97565,-0.625156 -0.1898,-0.126401 -0.34596,-0.27598 -0.48576,-0.431256 -0.17246,-0.176894 -0.24394,-0.377646 -0.28474,-0.587773 -0.0236,-0.159877 -0.0336,-0.322781 0.007,-0.481702 0.0113,-0.04243 0.0824,-0.227189 0.10283,-0.266188 0.15409,-0.291235 0.39574,-0.546329 0.67025,-0.78527 0.39715,-0.357592 0.88328,-0.65832 1.37717,-0.94494 0.41061,-0.230928 0.84597,-0.437822 1.29295,-0.63101 0.002,-8.5e-4 0.004,-0.0016 0.006,-0.0025 0.0126,-0.004 0.12983,-0.05021 0.18914,-0.07544 0.0704,-0.02811 0.13892,-0.05581 0.21032,-0.08467 1.26137,-0.52313 0.8458,-0.310169 1.39888,-0.603987 0.30206,-0.187059 0.61007,-0.365273 0.87436,-0.580114 0.24286,-0.188666 0.43403,-0.407103 0.59118,-0.636415 0.12757,-0.188879 0.15789,-0.39757 0.17829,-0.604661 0.0306,-0.271987 -0.0958,-0.530651 -0.23462,-0.779193 -0.26327,-0.437536 -0.60615,-0.84754 -0.96738,-1.246932 -0.28267,-0.308028 -0.61006,-0.592622 -0.91415,-0.889765 z"
       id="path4627-7-1"
       inkscape:connector-curvature="0" />
    <path
       sodipodi:type="spiral"
       style="fill:none;fill-rule:evenodd;stroke:#000000;stroke-width:0.26458332"
       id="path4667"
       sodipodi:cx="-243.80164"
       sodipodi:cy="15.068249"
       sodipodi:expansion="1"
       sodipodi:revolution="3"
       sodipodi:radius="21.899578"
       sodipodi:argument="-17.695198"
       sodipodi:t0="0"
       d="m -243.80164,15.068249 c 0.44416,1.004169 -1.13447,1.094129 -1.66899,0.738209 -1.44853,-0.964521 -0.91847,-3.092646 0.19258,-4.076199 1.98739,-1.7593457 5.03981,-0.875207 6.4834,1.123363 2.11852,2.932982 0.84128,7.017235 -2.05415,8.890607 -3.85916,2.496909 -9.0059,0.811978 -11.29781,-2.984935 -2.88414,-4.778028 -0.78519,-11.0000404 3.91572,-13.705015 5.69343,-3.2760865 12.99729,-0.7598792 16.11222,4.8465067 3.67083,6.6069323 0.7355,14.9964933 -5.77729,18.5194223 -7.51929,4.067362 -16.99699,0.711752 -20.92663,-6.708078 -4.4651,-8.430883 -0.68843,-18.9983942 7.63886,-23.3338308 9.34197,-4.8637045 21.00047,-0.6654297 25.74104,8.5696505 5.26293,10.2526893 0.64266,23.0030293 -9.50044,28.1482383" />
    <path
       sodipodi:type="spiral"
       style="fill:none;fill-rule:evenodd;stroke:#000000;stroke-width:0.26458332"
       id="path4669"
       sodipodi:cx="-875.06683"
       sodipodi:cy="512.68549"
       sodipodi:expansion="1"
       sodipodi:revolution="3"
       sodipodi:radius="575.89172"
       sodipodi:argument="-17.4835"
       sodipodi:t0="0"
       d="m -875.06683,512.68549 c 5.8705,28.27122 -35.21275,21.86134 -46.98864,9.75716 -31.91193,-32.80158 -6.52509,-84.58651 27.4743,-103.73443 60.81693,-34.25113 134.40894,5.3462 160.48023,64.70576 38.26068,87.11255 -17.14463,185.06072 -101.93723,217.22603 -113.01519,42.87131 -236.02703,-28.88652 -273.97183,-139.16869 -47.7497,-138.77885 40.594,-287.14813 176.40016,-330.71763 164.47946,-52.7685 338.35743,52.28059 387.46343,213.63163 57.86973,190.14661 -63.95391,389.62185 -250.86309,444.20922 -215.794,63.02329 -440.9231,-75.61838 -500.955,-288.09455 -68.2121,-241.42893 87.2767,-492.2501 325.326,-557.700827 267.05533,-73.425826 543.5959,98.930637 614.44662,362.557487 78.65773,292.67577 -110.58127,594.95585 -399.78895,671.19245" />
    <path
       style="fill:#00ff00;fill-opacity:1;stroke:#000000;stroke-width:1.76499999;stroke-linecap:round;stroke-linejoin:round;stroke-miterlimit:4;stroke-dasharray:none;stroke-opacity:1"
       id="path4671"
       d="m -1652.9123,819.63084 c -1.9807,21.86155 2.2005,43.84218 6.018,65.26536 5.1756,29.04437 8.005,40.8456 14.3527,70.36715 14.7008,65.76625 34.1666,130.26465 54.0933,194.58875 2.2928,7.6486 4.5856,15.2972 6.8784,22.9459 0,0 -34.1701,18.6157 -34.1701,18.6157 v 0 c -2.0709,-7.7586 -4.1419,-15.5171 -6.2129,-23.2757 -17.8416,-65.2651 -34.9496,-130.7238 -51.133,-196.42101 -29.9103,-119.22458 9.7444,39.04021 -17.1683,-68.95941 -1.1759,-4.7189 -9.594,-37.4863 -11.1398,-45.31058 -1.0857,-5.49564 -1.457,-11.59391 -1.9,-17.24065 0,0 40.3817,-20.57551 40.3817,-20.57551 z"
       inkscape:connector-curvature="0" />
    <path
       style="fill:#00ff00;fill-opacity:1;stroke:#000000;stroke-width:1.76499999;stroke-linecap:round;stroke-linejoin:round;stroke-miterlimit:4;stroke-dasharray:none;stroke-opacity:1"
       id="path4673"
       d="m -1991.7967,979.46034 c -0.9949,16.67878 -0.9778,33.40686 -1.0475,50.11066 0.5182,19.2264 1.6992,38.3973 5.0882,57.342 4.1028,18.8772 9.6233,37.4413 15.6109,55.7994 5.5632,17.0619 11.6205,33.9485 17.8825,50.7639 4.0105,10.6322 8.4186,21.3564 15.2922,30.4941 5.5997,5.8004 11.922,6.2245 19.3126,3.7802 -1.9968,1.9133 13.3933,-7.5313 10.0259,-5.6826 -10.6742,5.8602 -21.0108,12.3406 -31.8399,17.9096 -2.5756,1.3245 4.5357,-3.6274 7.0064,-5.1387 7.5134,-4.5961 15.0086,-9.2736 22.9113,-13.1624 33.6921,-16.5793 67.8753,-32.1416 101.813,-48.2123 42.0406,-17.2777 84.2133,-34.2373 126.1217,-51.8331 55.5109,-23.3071 110.7745,-47.199 166.13,-70.8729 144.8157,-61.93365 290.1267,-123.03922 433.1623,-189.03186 32.0636,-14.79325 63.7699,-30.34919 95.65476,-45.52378 23.50154,-12.02322 47.27226,-23.53419 70.50461,-36.0697 16.65631,-8.98723 42.73311,-24.12804 45.95018,-45.77016 6.63409,-44.62933 -42.32926,-114.48253 -60.38186,-139.56265 -28.03043,-38.94209 -61.09919,-73.99761 -91.64879,-110.99644 -142.44,-140.68594 -118.4244,-119.20746 -265.7088,-255.66391 -67.7302,-62.75088 -153.1698,-140.839422 -224.5748,-201.623659 -52.4196,-44.622686 -92.775,-75.530375 -145.6233,-116.93188 -27.361,-20.621741 -49.7932,-38.247121 -77.6683,-57.047681 -16.0268,-10.8094 -33.3865,-22.2534 -52.5678,-26.679 -4.0936,-0.94449 -8.3215,-1.16185 -12.4823,-1.74278 -28.8362,-1.53121 -57.6199,1.53588 -86.2522,4.59403 -10.5602,1.81444 -22.0936,1.52753 -32.2789,5.34315 -1.6092,0.60285 -3.0604,1.56407 -4.5906,2.34611 11.5737,-6.51392 23.1473,-13.02784 34.721,-19.54176 -8.5083,6.17696 -14.4608,15.0201 -19.7404,23.9498 -3.2878,6.72199 -4.2845,8.27031 -6.8266,15.78944 -15.7454,46.573929 -17.2977,97.481468 -21.5143,145.8787796 -4.3328,72.2391374 -2.5908,144.6624404 1.9845,216.8331004 2.5013,39.45346 5.6328,74.54498 10.9395,113.50183 1.9455,14.2816 4.5486,28.46586 6.8228,42.69878 6.215,34.05751 13.648,68.12428 25.4632,100.73986 0.5255,1.45058 9.1635,23.23137 10.1832,25.80585 6.0074,15.43632 12.7902,30.53879 19.5593,45.64949 3.7218,7.13671 5.1719,15.23227 9.0714,22.26542 3.4896,3.58439 9.7474,3.60307 14.4008,2.89375 7.4706,-0.22381 13.4623,-4.2187 20.1293,-6.94208 3.6764,-0.68951 6.9718,-2.57585 10.5547,-3.54288 7.4379,-2.00745 43.0278,-9.45152 43.4745,-9.54823 36.6864,-7.94242 51.5853,-11.29056 89.082,-19.59316 62.7886,-13.50754 125.0291,-29.45342 186.5043,-48.02756 30.1094,-10.26311 61.1529,-16.78816 92.0765,-24.03645 16.9742,-3.97862 33.9041,-8.14393 50.8562,-12.21589 49.3479,-12.33765 98.5654,-25.19794 147.9013,-37.58181 12.1984,-3.06192 24.3059,-6.54714 36.6405,-9.00351 38.6062,-7.68826 52.9899,-6.84739 95.5921,-9.51119 108.02177,-2.88343 215.97515,-7.69858 323.91261,-12.74979 0,0 -19.87941,14.54205 -19.87941,14.54205 v 0 c -108.94087,1.90731 -217.98026,4.44384 -326.5121,14.8608 -43.5315,5.28238 -61.507,6.4797 -100.9966,14.10936 -11.6679,2.25433 -23.2316,5.01989 -34.8179,7.6613 -48.6826,11.09858 -97.1851,23.0197 -145.4638,35.75809 -29.5019,7.9982 -65.9735,17.65382 -95.8326,26.52178 -18.663,5.54279 -36.9419,12.42256 -55.9845,16.66508 -59.2634,15.64047 -119.039,29.17076 -178.9672,42.0167 -51.5064,12.00102 -103.6744,23.11887 -153.3551,41.54392 -6.8487,3.18162 -13.7034,5.82044 -21.3964,5.83653 -6.5034,-0.29938 -13.4022,-1.31295 -17.3155,-7.12753 -3.6757,-7.36346 -4.9257,-15.59732 -8.2904,-23.10398 -6.3583,-15.4637 -12.8164,-30.89851 -17.9813,-46.81722 -4.9308,-14.96021 -9.977,-29.83897 -13.6004,-45.19245 -6.7204,-28.47705 -10.8553,-57.51602 -14.1345,-86.56203 -1.4588,-14.70227 -3.1573,-29.3827 -4.3764,-44.10676 -3.552,-42.90108 -4.7731,-72.25048 -6.4623,-115.97879 -2.7817,-72.01098 -4.422,-144.07054 -3.878,-216.1404 0.2967,-20.6845586 0.6388,-41.368515 0.8901,-62.053677 0.3811,-31.379368 -2.0393,-64.259753 11.1837,-93.666353 4.8166,-9.42992 10.5973,-18.33242 18.3163,-25.68289 14.0424,-8.15016 27.9265,-16.57939 42.1272,-24.45047 2.3978,-1.32908 7.999,-2.27318 10.5246,-2.67181 8.3934,-1.32477 16.8891,-1.96981 25.3538,-2.61153 28.863,-2.38144 57.8698,-5.54474 86.8514,-3.64331 4.2239,0.85951 8.5663,1.26515 12.6718,2.57854 18.0007,5.75862 33.1933,19.59327 46.9396,31.79992 19.3117,17.14865 50.44,47.31782 67.4381,63.55966 18.5588,17.848249 37.1555,35.657146 55.6764,53.544733 25.0466,24.190167 49.7241,48.76516459 75.0259,72.688328 92.3764,87.343159 123.7496,113.304319 221.2819,203.666809 139.6083,129.3453 130.7633,122.43084 266.6877,255.07961 34.36966,34.76517 70.35831,68.00107 103.10894,104.29547 19.99194,22.15523 84.29734,86.7229 78.39718,133.83548 -1.75072,13.9794 -14.36767,25.07703 -25.50951,33.69953 -28.4071,21.98381 -100.71957,55.01587 -134.17361,71.16932 -171.5894,77.3281 -344.5668,151.46197 -517.555,225.59771 -55.6434,23.8465 -111.5082,47.182 -166.9407,71.5146 -47.2161,20.7257 -93.9939,42.436 -140.9909,63.654 -16.3637,7.076 -32.987,13.5798 -49.0912,21.228 -40.1863,19.0853 -5.6728,3.9187 -25.2488,16.1163 -14.3614,8.9485 -28.9797,17.479 -43.5565,26.0722 -5.4872,3.2347 -5.5865,2.9617 -11.329,4.9295 -8.8132,0.9464 -16.703,-0.645 -22.3137,-8.0487 -6.5709,-9.851 -10.9278,-20.9833 -14.9705,-32.0625 -5.8819,-17.0367 -11.6712,-34.1074 -17.3882,-51.2008 -5.9009,-18.5788 -11.8629,-37.199 -15.9467,-56.2781 -3.4444,-19.2213 -4.9705,-38.5955 -5.2399,-58.1259 -0.068,-16.3475 -0.032,-32.7225 -1.0475,-49.0432 0,0 40.4816,-20.62636 40.4816,-20.62636 z"
       inkscape:connector-curvature="0" />
    <path
       style="fill:none;stroke:#000000;stroke-width:0.26458332px;stroke-linecap:butt;stroke-linejoin:miter;stroke-opacity:1"
       d="m -1949.8583,1401.3713 c 95.5178,280.3911 -73.9493,536.1325 388.2339,268.0662 462.1832,-268.0662 613.16292,-129.4113 613.16292,-129.4113 l 289.63475,6.1625 77.03052,-110.924 120.16727,-33.8933 624.53222,-899.38047 -11.36881,893.21787"
       id="path4675"
       inkscape:connector-curvature="0" />
    <use
       id="use4677"
       inkscape:spray-origin="#path4675"
       xlink:href="#path4675"
       x="0"
       y="0"
       width="100%"
       height="100%"
       transform="translate(-828.87503,-177.05347)" />
    <use
       id="use4679"
       inkscape:spray-origin="#path4675"
       xlink:href="#path4675"
       x="0"
       y="0"
       width="100%"
       height="100%"
       transform="translate(-676.65769,-106.78916)" />
    <use
       id="use4681"
       inkscape:spray-origin="#path4675"
       xlink:href="#path4675"
       x="0"
       y="0"
       width="100%"
       height="100%"
       transform="translate(-688.80181,-117.02763)" />
    <use
       id="use4683"
       inkscape:spray-origin="#path4675"
       xlink:href="#path4675"
       x="0"
       y="0"
       width="100%"
       height="100%"
       transform="translate(-766.50077,-100.75825)" />
    <use
       id="use4685"
       inkscape:spray-origin="#path4675"
       xlink:href="#path4675"
       x="0"
       y="0"
       width="100%"
       height="100%"
       transform="translate(-812.20416,-93.042158)" />
    <use
       id="use4687"
       inkscape:spray-origin="#path4675"
       xlink:href="#path4675"
       x="0"
       y="0"
       width="100%"
       height="100%"
       transform="translate(-775.58347,-88.824798)" />
    <use
       id="use4689"
       inkscape:spray-origin="#path4675"
       xlink:href="#path4675"
       x="0"
       y="0"
       width="100%"
       height="100%"
       transform="translate(-723.83769,-108.87943)" />
    <use
       id="use4691"
       inkscape:spray-origin="#path4675"
       xlink:href="#path4675"
       x="0"
       y="0"
       width="100%"
       height="100%"
       transform="translate(-606.0261,-129.21137)" />
    <use
       id="use4693"
       inkscape:spray-origin="#path4675"
       xlink:href="#path4675"
       x="0"
       y="0"
       width="100%"
       height="100%"
       transform="translate(-745.93293,-155.97539)" />
    <use
       id="use4695"
       inkscape:spray-origin="#path4675"
       xlink:href="#path4675"
       x="0"
       y="0"
       width="100%"
       height="100%"
       transform="translate(-611.27865,-162.66487)" />
    <use
       id="use4697"
       inkscape:spray-origin="#path4675"
       xlink:href="#path4675"
       x="0"
       y="0"
       width="100%"
       height="100%"
       transform="translate(-665.95133,-123.68324)" />
    <use
       id="use4699"
       inkscape:spray-origin="#path4675"
       xlink:href="#path4675"
       x="0"
       y="0"
       width="100%"
       height="100%"
       transform="translate(-600.74062,-190.94523)" />
    <use
       id="use4701"
       inkscape:spray-origin="#path4675"
       xlink:href="#path4675"
       x="0"
       y="0"
       width="100%"
       height="100%"
       transform="translate(-699.69481,-13.113714)" />
    <use
       id="use4703"
       inkscape:spray-origin="#path4675"
       xlink:href="#path4675"
       x="0"
       y="0"
       width="100%"
       height="100%"
       transform="translate(-709.83791,-158.47383)" />
    <use
       id="use4705"
       inkscape:spray-origin="#path4675"
       xlink:href="#path4675"
       x="0"
       y="0"
       width="100%"
       height="100%"
       transform="translate(-604.66972,-173.3025)" />
    <use
       id="use4707"
       inkscape:spray-origin="#path4675"
       xlink:href="#path4675"
       x="0"
       y="0"
       width="100%"
       height="100%"
       transform="translate(-719.95231,-192.69899)" />
    <use
       id="use4709"
       inkscape:spray-origin="#path4675"
       xlink:href="#path4675"
       x="0"
       y="0"
       width="100%"
       height="100%"
       transform="translate(-656.07766,-151.43537)" />
    <use
       id="use4711"
       inkscape:spray-origin="#path4675"
       xlink:href="#path4675"
       x="0"
       y="0"
       width="100%"
       height="100%"
       transform="translate(-763.06119,-63.38423)" />
    <use
       id="use4713"
       inkscape:spray-origin="#path4675"
       xlink:href="#path4675"
       x="0"
       y="0"
       width="100%"
       height="100%"
       transform="translate(-824.85877,-186.04148)" />
    <use
       id="use4715"
       inkscape:spray-origin="#path4675"
       xlink:href="#path4675"
       x="0"
       y="0"
       width="100%"
       height="100%"
       transform="translate(-703.34732,-152.20382)" />
    <use
       id="use4717"
       inkscape:spray-origin="#path4675"
       xlink:href="#path4675"
       x="0"
       y="0"
       width="100%"
       height="100%"
       transform="translate(-815.24277,-201.07546)" />
    <use
       id="use4719"
       inkscape:spray-origin="#path4675"
       xlink:href="#path4675"
       x="0"
       y="0"
       width="100%"
       height="100%"
       transform="translate(-683.4488,-92.433871)" />
    <use
       id="use4721"
       inkscape:spray-origin="#path4675"
       xlink:href="#path4675"
       x="0"
       y="0"
       width="100%"
       height="100%"
       transform="translate(-874.17004,-159.13425)" />
    <use
       id="use4723"
       inkscape:spray-origin="#path4675"
       xlink:href="#path4675"
       x="0"
       y="0"
       width="100%"
       height="100%"
       transform="translate(-707.11846,-126.76772)" />
    <use
       id="use4725"
       inkscape:spray-origin="#path4675"
       xlink:href="#path4675"
       x="0"
       y="0"
       width="100%"
       height="100%"
       transform="translate(-787.0789,-87.202532)" />
    <use
       id="use4727"
       inkscape:spray-origin="#path4675"
       xlink:href="#path4675"
       x="0"
       y="0"
       width="100%"
       height="100%"
       transform="translate(-907.75694,-180.28481)" />
    <use
       id="use4729"
       inkscape:spray-origin="#path4675"
       xlink:href="#path4675"
       x="0"
       y="0"
       width="100%"
       height="100%"
       transform="translate(-769.18139,-143.34186)" />
    <use
       id="use4731"
       inkscape:spray-origin="#path4675"
       xlink:href="#path4675"
       x="0"
       y="0"
       width="100%"
       height="100%"
       transform="translate(-826.44097,-224.8944)" />
    <use
       id="use4733"
       inkscape:spray-origin="#path4675"
       xlink:href="#path4675"
       x="0"
       y="0"
       width="100%"
       height="100%"
       transform="translate(-842.19783,-137.37738)" />
    <use
       id="use4735"
       inkscape:spray-origin="#path4675"
       xlink:href="#path4675"
       x="0"
       y="0"
       width="100%"
       height="100%"
       transform="translate(-769.91386,-151.60582)" />
    <use
       id="use4737"
       inkscape:spray-origin="#path4675"
       xlink:href="#path4675"
       x="0"
       y="0"
       width="100%"
       height="100%"
       transform="translate(-741.42891,-268.40349)" />
    <use
       id="use4739"
       inkscape:spray-origin="#path4675"
       xlink:href="#path4675"
       x="0"
       y="0"
       width="100%"
       height="100%"
       transform="translate(-695.34267,-302.58151)" />
    <use
       id="use4741"
       inkscape:spray-origin="#path4675"
       xlink:href="#path4675"
       x="0"
       y="0"
       width="100%"
       height="100%"
       transform="translate(-750.86133,-210.28006)" />
    <use
       id="use4743"
       inkscape:spray-origin="#path4675"
       xlink:href="#path4675"
       x="0"
       y="0"
       width="100%"
       height="100%"
       transform="translate(-817.45965,-184.12122)" />
    <use
       id="use4745"
       inkscape:spray-origin="#path4675"
       xlink:href="#path4675"
       x="0"
       y="0"
       width="100%"
       height="100%"
       transform="translate(-753.09622,-240.10318)" />
    <use
       id="use4747"
       inkscape:spray-origin="#path4675"
       xlink:href="#path4675"
       x="0"
       y="0"
       width="100%"
       height="100%"
       transform="translate(-795.67183,-202.68409)" />
    <use
       id="use4749"
       inkscape:spray-origin="#path4675"
       xlink:href="#path4675"
       x="0"
       y="0"
       width="100%"
       height="100%"
       transform="translate(-802.23239,-198.78753)" />
    <use
       id="use4751"
       inkscape:spray-origin="#path4675"
       xlink:href="#path4675"
       x="0"
       y="0"
       width="100%"
       height="100%"
       transform="translate(-751.70803,-165.09662)" />
    <use
       id="use4753"
       inkscape:spray-origin="#path4675"
       xlink:href="#path4675"
       x="0"
       y="0"
       width="100%"
       height="100%"
       transform="translate(-689.15268,-182.30001)" />
    <use
       id="use4755"
       inkscape:spray-origin="#path4675"
       xlink:href="#path4675"
       x="0"
       y="0"
       width="100%"
       height="100%"
       transform="translate(-724.34068,-238.68022)" />
    <use
       id="use4757"
       inkscape:spray-origin="#path4675"
       xlink:href="#path4675"
       x="0"
       y="0"
       width="100%"
       height="100%"
       transform="translate(-536.01891,-220.01933)" />
    <use
       id="use4759"
       inkscape:spray-origin="#path4675"
       xlink:href="#path4675"
       x="0"
       y="0"
       width="100%"
       height="100%"
       transform="translate(-551.43995,-285.97693)" />
    <use
       id="use4761"
       inkscape:spray-origin="#path4675"
       xlink:href="#path4675"
       x="0"
       y="0"
       width="100%"
       height="100%"
       transform="translate(-568.91684,-141.49585)" />
    <use
       id="use4763"
       inkscape:spray-origin="#path4675"
       xlink:href="#path4675"
       x="0"
       y="0"
       width="100%"
       height="100%"
       transform="translate(-448.43159,-285.45995)" />
    <use
       id="use4765"
       inkscape:spray-origin="#path4675"
       xlink:href="#path4675"
       x="0"
       y="0"
       width="100%"
       height="100%"
       transform="translate(-512.03538,-185.60637)" />
    <use
       id="use4767"
       inkscape:spray-origin="#path4675"
       xlink:href="#path4675"
       x="0"
       y="0"
       width="100%"
       height="100%"
       transform="translate(-498.98253,-182.35277)" />
    <use
       id="use4769"
       inkscape:spray-origin="#path4675"
       xlink:href="#path4675"
       x="0"
       y="0"
       width="100%"
       height="100%"
       transform="translate(-341.3634,-235.10292)" />
    <use
       id="use4771"
       inkscape:spray-origin="#path4675"
       xlink:href="#path4675"
       x="0"
       y="0"
       width="100%"
       height="100%"
       transform="translate(-260.41956,-212.67648)" />
    <use
       id="use4773"
       inkscape:spray-origin="#path4675"
       xlink:href="#path4675"
       x="0"
       y="0"
       width="100%"
       height="100%"
       transform="translate(-345.72959,-84.099441)" />
    <use
       id="use4775"
       inkscape:spray-origin="#path4675"
       xlink:href="#path4675"
       x="0"
       y="0"
       width="100%"
       height="100%"
       transform="translate(-167.49383,-141.19782)" />
    <use
       id="use4777"
       inkscape:spray-origin="#path4675"
       xlink:href="#path4675"
       x="0"
       y="0"
       width="100%"
       height="100%"
       transform="translate(-169.53067,-149.74025)" />
    <use
       id="use4779"
       inkscape:spray-origin="#path4675"
       xlink:href="#path4675"
       x="0"
       y="0"
       width="100%"
       height="100%"
       transform="translate(-121.92099,-177.73134)" />
    <use
       id="use4781"
       inkscape:spray-origin="#path4675"
       xlink:href="#path4675"
       x="0"
       y="0"
       width="100%"
       height="100%"
       transform="translate(-203.31432,-141.81824)" />
    <use
       id="use4783"
       inkscape:spray-origin="#path4675"
       xlink:href="#path4675"
       x="0"
       y="0"
       width="100%"
       height="100%"
       transform="translate(-170.72401,-92.73278)" />
    <use
       id="use4785"
       inkscape:spray-origin="#path4675"
       xlink:href="#path4675"
       x="0"
       y="0"
       width="100%"
       height="100%"
       transform="translate(-98.088165,-24.417934)" />
    <use
       id="use4787"
       inkscape:spray-origin="#path4675"
       xlink:href="#path4675"
       x="0"
       y="0"
       width="100%"
       height="100%"
       transform="translate(10.178783,-132.33981)" />
    <use
       id="use4789"
       inkscape:spray-origin="#path4675"
       xlink:href="#path4675"
       x="0"
       y="0"
       width="100%"
       height="100%"
       transform="translate(-33.233998,-175.7743)" />
    <use
       id="use4791"
       inkscape:spray-origin="#path4675"
       xlink:href="#path4675"
       x="0"
       y="0"
       width="100%"
       height="100%"
       transform="translate(-8.4974797,-61.62767)" />
    <use
       id="use4793"
       inkscape:spray-origin="#path4675"
       xlink:href="#path4675"
       x="0"
       y="0"
       width="100%"
       height="100%"
       transform="translate(-88.620432,-45.684186)" />
    <use
       id="use4795"
       inkscape:spray-origin="#path4675"
       xlink:href="#path4675"
       x="0"
       y="0"
       width="100%"
       height="100%"
       transform="translate(-41.07478,-109.41546)" />
    <use
       id="use4797"
       inkscape:spray-origin="#path4675"
       xlink:href="#path4675"
       x="0"
       y="0"
       width="100%"
       height="100%"
       transform="translate(-2.3712414,-128.5408)" />
    <use
       id="use4799"
       inkscape:spray-origin="#path4675"
       xlink:href="#path4675"
       x="0"
       y="0"
       width="100%"
       height="100%"
       transform="translate(-74.830056,-134.16799)" />
    <use
       id="use4801"
       inkscape:spray-origin="#path4675"
       xlink:href="#path4675"
       x="0"
       y="0"
       width="100%"
       height="100%"
       transform="translate(15.378555,-124.00383)" />
    <use
       id="use4803"
       inkscape:spray-origin="#path4675"
       xlink:href="#path4675"
       x="0"
       y="0"
       width="100%"
       height="100%"
       transform="translate(123.66021,-6.6559836)" />
    <use
       id="use4805"
       inkscape:spray-origin="#path4675"
       xlink:href="#path4675"
       x="0"
       y="0"
       width="100%"
       height="100%"
       transform="translate(91.671496,-59.70784)" />
    <use
       id="use4807"
       inkscape:spray-origin="#path4675"
       xlink:href="#path4675"
       x="0"
       y="0"
       width="100%"
       height="100%"
       transform="translate(89.516919,-88.204204)" />
    <use
       id="use4809"
       inkscape:spray-origin="#path4675"
       xlink:href="#path4675"
       x="0"
       y="0"
       width="100%"
       height="100%"
       transform="translate(120.9869,-62.952232)" />
    <use
       id="use4811"
       inkscape:spray-origin="#path4675"
       xlink:href="#path4675"
       x="0"
       y="0"
       width="100%"
       height="100%"
       transform="translate(242.35864,87.334693)" />
    <use
       id="use4813"
       inkscape:spray-origin="#path4675"
       xlink:href="#path4675"
       x="0"
       y="0"
       width="100%"
       height="100%"
       transform="translate(421.45244,-42.573862)" />
    <use
       id="use4815"
       inkscape:spray-origin="#path4675"
       xlink:href="#path4675"
       x="0"
       y="0"
       width="100%"
       height="100%"
       transform="translate(459.19162,-3.9036281)" />
    <use
       id="use4817"
       inkscape:spray-origin="#path4675"
       xlink:href="#path4675"
       x="0"
       y="0"
       width="100%"
       height="100%"
       transform="translate(336.66931,-86.498477)" />
    <use
       id="use4819"
       inkscape:spray-origin="#path4675"
       xlink:href="#path4675"
       x="0"
       y="0"
       width="100%"
       height="100%"
       transform="translate(-718.68155,-531.68626)" />
    <use
       id="use4821"
       inkscape:spray-origin="#path4675"
       xlink:href="#path4675"
       x="0"
       y="0"
       width="100%"
       height="100%"
       transform="translate(-682.66212,-553.94366)" />
    <use
       id="use4823"
       inkscape:spray-origin="#path4675"
       xlink:href="#path4675"
       x="0"
       y="0"
       width="100%"
       height="100%"
       transform="translate(-716.65166,-486.05958)" />
    <use
       id="use4825"
       inkscape:spray-origin="#path4675"
       xlink:href="#path4675"
       x="0"
       y="0"
       width="100%"
       height="100%"
       transform="translate(-1582.3415,-352.21012)" />
    <use
       id="use4827"
       inkscape:spray-origin="#path4675"
       xlink:href="#path4675"
       x="0"
       y="0"
       width="100%"
       height="100%"
       transform="translate(-1446.0755,-290.56767)" />
    <use
       id="use4829"
       inkscape:spray-origin="#path4675"
       xlink:href="#path4675"
       x="0"
       y="0"
       width="100%"
       height="100%"
       transform="translate(-1461.3483,-402.68223)" />
    <use
       id="use4831"
       inkscape:spray-origin="#path4675"
       xlink:href="#path4675"
       x="0"
       y="0"
       width="100%"
       height="100%"
       transform="translate(-1261.9055,-344.42902)" />
    <use
       id="use4833"
       inkscape:spray-origin="#path4675"
       xlink:href="#path4675"
       x="0"
       y="0"
       width="100%"
       height="100%"
       transform="translate(1307.4043,-20.456858)" />
    <use
       id="use4835"
       inkscape:spray-origin="#path4675"
       xlink:href="#path4675"
       x="0"
       y="0"
       width="100%"
       height="100%"
       transform="translate(1211.4596,39.985214)" />
    <use
       id="use4837"
       inkscape:spray-origin="#path4675"
       xlink:href="#path4675"
       x="0"
       y="0"
       width="100%"
       height="100%"
       transform="translate(1218.3142,-59.254412)" />
    <use
       id="use4839"
       inkscape:spray-origin="#path4675"
       xlink:href="#path4675"
       x="0"
       y="0"
       width="100%"
       height="100%"
       transform="translate(-860.11464,-218.82127)" />
    <use
       id="use4841"
       inkscape:spray-origin="#path4675"
       xlink:href="#path4675"
       x="0"
       y="0"
       width="100%"
       height="100%"
       transform="translate(-761.21337,-221.91733)" />
    <text
       xml:space="preserve"
       style="font-style:normal;font-weight:normal;font-size:10.58333302px;line-height:1.25;font-family:sans-serif;letter-spacing:0px;word-spacing:0px;fill:#000000;fill-opacity:1;stroke:none;stroke-width:0.26458332"
       x="-2323.241"
       y="950.21893"
       id="text4845"><tspan
         sodipodi:role="line"
         id="tspan4843"
         x="-2323.241"
         y="950.21893"
         style="stroke-width:0.26458332">vmhvnbcbvzxvcvc zv</tspan></text>
    <text
       xml:space="preserve"
       style="font-style:normal;font-weight:normal;font-size:10.58333302px;line-height:1.25;font-family:sans-serif;letter-spacing:0px;word-spacing:0px;fill:#000000;fill-opacity:1;stroke:none;stroke-width:0.26458332"
       x="-1434.7085"
       y="1144.5347"
       id="text4849"><tspan
         sodipodi:role="line"
         id="tspan4847"
         x="-1434.7085"
         y="1144.5347"
         style="stroke-width:0.26458332">bjbjn,.nm,.</tspan></text>
    <path
       style="fill:none;stroke:#000000;stroke-width:0.26458332px;stroke-linecap:butt;stroke-linejoin:miter;stroke-opacity:1"
       d="m -159.86596,222.50568 c 0.40326,-0.46872 0.47923,-1.12736 0.81703,-1.63407 0.14243,-0.21364 0.42986,-0.31503 0.54469,-0.54469 0.0812,-0.1624 -0.0812,-0.3823 0,-0.54469 0.0574,-0.11483 0.21493,-0.15752 0.27234,-0.27235 0.0406,-0.0812 -0.0406,-0.19115 0,-0.27234 0.0574,-0.11483 0.21493,-0.15752 0.27235,-0.27235 0.10893,-0.21788 -0.10894,-0.59916 0,-0.81704 0.0574,-0.11483 0.23174,-0.15055 0.27234,-0.27234 0.0488,-0.14642 0,-0.8588 0,-1.08938 0,-0.72626 0,-1.45251 0,-2.17877 0,-0.63547 0,-1.27094 0,-1.90642 0,-0.0908 0.0642,-0.20815 0,-0.27235 -0.0642,-0.0642 -0.20815,0.0642 -0.27234,0 -0.0956,-0.0956 0.0941,-1.1736 0,-1.36172 -0.0574,-0.11483 -0.21493,-0.15752 -0.27235,-0.27235 -0.0406,-0.0812 0,-0.18156 0,-0.27234 0,-0.0908 -0.0642,-0.20816 0,-0.27235 0.0642,-0.0642 0.18157,0 0.27235,0 0.0908,0 0.18156,0 0.27234,0 1.08938,0 2.17875,0 3.26813,0 1.08938,0 2.18152,0.0776 3.26813,0 5.07098,-0.36221 -1.24552,-0.27235 3.81281,-0.27235 2.16299,0 0.0163,0.0881 2.17876,-0.27234 0.17909,-0.0298 0.36312,0 0.54469,0 0.4539,0 0.90781,0 1.36172,0 0.36312,0 0.72625,0 1.08937,0 0.0908,0 0.27235,-0.0908 0.27235,0 0,0.18156 -0.41631,-0.12839 -0.54469,0 -0.0642,0.0642 0.0642,0.20815 0,0.27234 -0.12839,0.12839 -0.41631,-0.12838 -0.54469,0 -0.14354,0.14354 -0.15975,0.3758 -0.27234,0.5447 -0.0712,0.10682 -0.21493,0.15751 -0.27235,0.27234 -0.0406,0.0812 0.0406,0.19115 0,0.27235 -0.11483,0.22966 -0.42986,0.31503 -0.54469,0.54469 -0.0406,0.0812 0.0642,0.20815 0,0.27234 -0.0642,0.0642 -0.20815,-0.0642 -0.27234,0 -0.0642,0.0642 0.0642,0.20816 0,0.27235 -0.0642,0.0642 -0.23175,-0.0812 -0.27234,0 -0.0812,0.1624 0.0812,0.38229 0,0.54469 -0.0406,0.0812 -0.23175,-0.0812 -0.27235,0 -0.0812,0.1624 0.0574,0.37244 0,0.54469 -0.0406,0.1218 -0.20113,0.16553 -0.27234,0.27235 -0.91722,1.37584 -0.002,0.006 -0.27235,0.81704 -0.0642,0.19257 -0.20815,0.35211 -0.27234,0.54469 -0.0588,0.17645 0,1.13876 0,1.36172 0,0.81704 0,1.63408 0,2.45112 0,0.63547 0,1.27094 0,1.90641 0,0.12266 0.0414,0.73416 0,0.81704 -0.0574,0.11483 -0.21493,0.15751 -0.27234,0.27235 -0.0415,0.0829 0,0.69438 0,0.81703 0,0.54469 0,1.08938 0,1.63408 0,0.45391 0,0.90782 0,1.36173 0,0.18156 0,0.36312 0,0.54469 0,0.0908 0.0908,0.27234 0,0.27234 -0.0908,0 0,-0.18156 0,-0.27234"
       id="path5503"
       inkscape:connector-curvature="0" />
    <path
       style="fill:none;stroke:#000000;stroke-width:0.26458332px;stroke-linecap:butt;stroke-linejoin:miter;stroke-opacity:1"
       d="m -215.69649,127.87434 -3.54048,-7.89798"
       id="path5505"
       inkscape:connector-curvature="0" />
    <path
       style="fill:none;stroke:#000000;stroke-width:0.26458332px;stroke-linecap:butt;stroke-linejoin:miter;stroke-opacity:1"
       d="m -154.69142,225.50149 c -0.0908,-0.45391 -0.19625,-0.90513 -0.27235,-1.36173 -0.0709,-0.42569 0,-1.16852 0,-1.63408 0,-1.27094 0,-2.54189 0,-3.81283 0,-0.5447 0,-1.08939 0,-1.63408 0,-0.18156 0,-0.36313 0,-0.54469 0,-0.0908 -0.0406,-0.19115 0,-0.27235 0.0574,-0.11483 0.21493,-0.15751 0.27235,-0.27234 0.0406,-0.0812 -0.0642,-0.20816 0,-0.27235 0.0642,-0.0642 0.20815,0.0642 0.27234,0 0.56349,-0.56349 -0.86109,0.022 0.27234,-0.54469 0.0812,-0.0406 0.18156,0 0.27235,0 0.54469,0 1.08937,0 1.63406,0 0.0908,0 0.18157,0 0.27235,0 0.0908,0 0.19114,0.0406 0.27234,0 0.11483,-0.0574 0.23175,-0.15055 0.27234,-0.27234 0.0574,-0.17225 -0.044,-0.36855 0,-0.54469 0.0985,-0.39387 0.39391,-0.71244 0.54469,-1.08939 0.10662,-0.26654 0.14396,-0.56027 0.27235,-0.81704 0.14638,-0.29276 0.44118,-0.50651 0.54468,-0.81703 0.0861,-0.25837 -0.0534,-0.54998 0,-0.81704 0.0398,-0.19905 0.20816,-0.35211 0.27235,-0.54469 0.0287,-0.0861 0,-0.18156 0,-0.27235 0.0908,-0.0908 0.21493,-0.15751 0.27234,-0.27234 0.054,-0.10798 -0.0557,-0.76136 0,-0.81704 0.0642,-0.0642 0.27235,-0.0908 0.27235,0 0,0.0908 -0.33654,-0.0642 -0.27235,0 0.68792,0.68792 0.31396,0.10465 0.81703,0.27235 0.19258,0.0642 0.37579,0.15974 0.54469,0.27234 0.21365,0.14244 0.31503,0.42986 0.54469,0.54469 0.24359,0.1218 0.57344,-0.12179 0.81703,0 0.0812,0.0406 -0.0642,0.20816 0,0.27235 0.14354,0.14354 0.37579,0.15975 0.54469,0.27235 0.10682,0.0712 0.15055,0.23174 0.27235,0.27234 0.17224,0.0574 0.37244,-0.0574 0.54468,0 0.1218,0.0406 0.16553,0.20113 0.27235,0.27235 -0.031,0.51594 0.63547,0.18156 0.81703,0.27234 0.22966,0.11483 0.31503,0.42987 0.54469,0.54469 0.10798,0.054 0.76135,-0.0557 0.81703,0 0.0642,0.0642 -0.0642,0.20816 0,0.27235 0.12838,0.12838 0.38229,-0.0812 0.54469,0 0.11483,0.0574 0.15054,0.23175 0.27234,0.27234 0.15061,0.0502 1.3598,0 1.63407,0 0.0908,0 0.19114,-0.0406 0.27234,0 0.11483,0.0574 0.15751,0.21493 0.27234,0.27235 0.0812,0.0406 0.18157,0 0.27235,0 0.18156,0 0.36854,-0.044 0.54469,0 0.19693,0.0492 0.35211,0.20815 0.54468,0.27235 0.17225,0.0574 0.3823,-0.0812 0.54469,0 0.11483,0.0574 0.15752,0.21493 0.27235,0.27234 0.16239,0.0812 0.4163,-0.12838 0.54468,0 0.0642,0.0642 0,0.18157 0,0.27235 0,0.0908 0.0642,0.20815 0,0.27234 -0.12838,0.12839 -0.4163,-0.12838 -0.54468,0 -0.0642,0.0642 0.0642,0.20816 0,0.27235 -0.18501,0.18501 -0.54163,-0.27847 -0.81704,0.27235 -0.0406,0.0812 0.0406,0.19114 0,0.27234 -0.0574,0.11483 -0.18156,0.18156 -0.27234,0.27235 -0.27234,0.27234 -0.54469,0.54469 -0.81703,0.81703 -0.18156,0.18157 -0.40226,0.33105 -0.54469,0.54469 -0.47053,0.7058 -0.0591,0.71433 -0.54469,1.36173 -0.15406,0.20542 -0.39062,0.33928 -0.54469,0.54469 -0.12179,0.1624 -0.18156,0.36313 -0.27234,0.5447 -0.0908,0.18156 -0.18156,0.36312 -0.27234,0.54469 -0.18157,0.36312 -0.39391,0.71243 -0.54469,1.08938 -0.10662,0.26654 -0.14396,0.56026 -0.27235,0.81704 -0.14638,0.29276 -0.3983,0.52427 -0.54468,0.81703 -0.0406,0.0812 0.022,0.18428 0,0.27235 -0.0696,0.2785 -0.21605,0.53553 -0.27235,0.81703 -0.0356,0.17804 0.044,0.36855 0,0.54469 -0.0985,0.39387 -0.4163,0.70423 -0.54469,1.08939 -0.0287,0.0861 0.0287,0.18622 0,0.27234 -0.0642,0.19258 -0.20815,0.35212 -0.27234,0.5447 -0.0574,0.17224 0.0812,0.38229 0,0.54469 -0.0574,0.11483 -0.21493,0.15751 -0.27234,0.27234 -0.0406,0.0812 0,0.18157 0,0.27235 0,0.0908 0,0.18156 0,0.27234 0,0.19156 -0.15658,0.75916 0.27234,0.54469 0.22966,-0.11483 0.31503,-0.42986 0.54469,-0.54469 0.0812,-0.0406 0.20815,0.0642 0.27234,0 0.0642,-0.0642 -0.0642,-0.20815 0,-0.27234 0.0642,-0.0642 0.36097,0.0197 0.27235,0 -0.90375,-0.20084 -1.81563,-0.36313 -2.72344,-0.54469"
       id="path5507"
       inkscape:connector-curvature="0" />
    <ellipse
       style="fill:#ffffff;fill-opacity:1;stroke:#000000;stroke-width:0.91537899;stroke-linecap:round;stroke-linejoin:round;stroke-miterlimit:4;stroke-dasharray:none;stroke-opacity:1"
       id="path5511"
       cx="-140.58742"
       cy="224.99448"
       rx="4.5291109"
       ry="4.0565085" />
    <path
       style="fill:none;fill-opacity:1;stroke:#fafafa;stroke-width:3.3900001;stroke-linecap:round;stroke-linejoin:round;stroke-miterlimit:4;stroke-dasharray:none;stroke-opacity:1"
       d="m -144.8934,216.70696 c 5.86666,-0.17162 8.44943,0.0534 10.70216,2.58201 2.87189,3.42355 2.32914,6.93606 2.24778,10.95263"
       id="path5537"
       inkscape:connector-curvature="0"
       sodipodi:nodetypes="ccc" />
    <path
       style="fill:none;fill-opacity:1;stroke:#f5f5f5;stroke-width:3.2349999;stroke-linecap:round;stroke-linejoin:round;stroke-miterlimit:4;stroke-dasharray:none;stroke-opacity:1"
       d="m -145.15938,211.06717 c 8.80209,-0.24905 12.67717,0.0776 16.05707,3.74685 4.30886,4.96806 3.49454,10.0652 3.37247,15.8938"
       id="path5537-7"
       inkscape:connector-curvature="0"
       sodipodi:nodetypes="ccc" />
    <path
       style="fill:none;fill-opacity:1;stroke:#000000;stroke-width:3.384;stroke-linecap:round;stroke-linejoin:miter;stroke-miterlimit:4;stroke-dasharray:none;stroke-opacity:1"
       id="path5569"
       d="m -394.72237,171.08906 c -1.42828,-1.12518 -2.9496,-2.12011 -4.4137,-3.19734 -1.3697,-1.05851 -2.80048,-2.0383 -4.25437,-2.97617 -0.88895,-0.61204 -1.84401,-1.12772 -2.64231,-1.86106 -0.77489,-0.84913 -1.2056,-1.86418 -1.46974,-2.96703 -0.21267,-1.09526 -0.22214,-2.21464 -0.2331,-3.32614 -0.003,-1.09281 0.003,-2.18561 0.007,-3.27841 -0.0597,-1.11378 0.19093,-2.16933 0.62566,-3.18392 0.52232,-1.02895 1.02286,-2.06872 1.55843,-3.09091 0.47593,-0.97007 1.0809,-1.86606 1.63144,-2.79349 0.60902,-0.98004 1.358,-1.87673 2.19348,-2.67109 0.77234,-0.73117 1.42102,-1.58404 2.10497,-2.39803 0.92906,-0.90383 1.85044,-1.80829 2.75648,-2.73627 0.81778,-0.86387 1.61513,-1.74682 2.43959,-2.60394 0.94936,-0.76639 1.8781,-1.56089 2.75694,-2.40764 0.79904,-0.73758 1.51402,-1.54245 2.2317,-2.35533 0.81309,-0.79448 1.50038,-1.68533 2.13842,-2.62147 0.68471,-0.9929 1.43692,-1.93869 2.03163,-2.98942 0.59486,-1.12138 1.20737,-2.23604 1.63208,-3.43477 0.33089,-1.04095 0.38304,-2.13388 0.41579,-3.21693 -0.0452,-1.13468 0.10824,-2.24963 0.35441,-3.35388 0.33187,-1.04553 0.53885,-2.11495 0.64971,-3.20437 0.0872,-1.07663 0.087,-2.15771 0.0899,-3.23711 -2.59552,-5.35099 5.76302,-16.790808 5.56315,-9.293598 -0.11541,1.39419 -0.0891,2.794048 -0.10065,4.191448 0.008,1.39728 0.003,2.79452 0.009,4.19179 -0.0265,1.33396 0.22998,2.64979 0.38368,3.97009 0.0348,1.18061 0.20589,2.34242 0.52043,3.48012 0.23278,0.97595 0.68601,1.87001 0.97002,2.82878 0.31011,1.29281 0.27101,2.63582 0.28948,3.9562 0.0317,1.53603 0.054,3.0593 -0.24612,4.57094 -0.28625,1.26041 -0.71305,2.47634 -1.22372,3.66143 -0.48229,1.35731 -1.27553,2.54041 -2.07137,3.72615 -0.78399,1.15567 -1.80944,2.11928 -2.7768,3.11906 -0.98542,0.92008 -1.92339,1.87763 -3.04824,2.62725 -0.93194,0.64147 -1.7879,1.38396 -2.67978,2.07788 -0.88281,0.68341 -1.78168,1.33675 -2.63491,2.05737 -0.59867,0.58395 -1.28161,1.09526 -1.73582,1.80516 -0.40148,0.86736 -0.40714,1.842 -0.4359,2.77967 0.0172,1.04474 -0.0782,2.10005 0.0443,3.13967 0.22643,0.89141 0.70112,1.67763 1.06883,2.51063 0.42096,0.68159 0.6835,1.44464 1.1687,2.08589 0.55861,0.68728 0.99237,1.39738 1.67216,1.97395 0.73348,0.71469 1.40759,1.49563 2.17559,2.1734 0.80301,0.7925 1.64947,1.54846 2.43083,2.36385 0.67432,0.86613 1.0913,1.89504 1.60235,2.86056 0.45172,0.94943 0.72752,1.97158 0.52062,3.01297 -0.0864,0.13993 -0.15394,0.2935 -0.25929,0.41979 -0.0728,0.0872 -0.60775,0.52061 -0.7016,0.5738 -3.45294,1.95646 -5.33281,3.52156 -8.50082,4.48698 -1.20595,0.29838 -2.19718,0.62964 -3.23009,-0.22822 -0.68998,-0.85318 -0.73128,-1.94372 -0.77586,-2.99248 -0.10692,-0.82207 0.28069,-1.92091 -0.35433,-2.57679 -0.3098,-0.17811 -0.66059,-0.20548 -1.00672,-0.25177 l 6.60133,-4.57517 v 0 c 0.4957,0.1509 0.95007,0.30159 1.31628,0.69404 0.67534,0.92711 0.5919,1.94351 0.56724,3.04825 0.0212,0.76291 -0.0483,1.69033 0.44219,2.32277 0.86048,0.39168 1.89916,-0.13409 2.74614,-0.34118 0.37335,-0.13648 1.45635,-0.6261 1.11556,-0.42148 -11.57679,6.95081 -7.79298,4.33486 -5.29317,3.15204 0.0893,-0.0684 0.21381,-0.10664 0.26794,-0.20528 0.32507,-0.59236 -0.25492,-1.58332 -0.41867,-2.13852 -0.4617,-0.90276 -0.84834,-1.86165 -1.46461,-2.67103 -0.78335,-0.79364 -1.60218,-1.55784 -2.41718,-2.31788 -0.7394,-0.70074 -1.43539,-1.44627 -2.17783,-2.14426 -0.71298,-0.6257 -1.17044,-1.41227 -1.78898,-2.12198 -0.49271,-0.70684 -0.81571,-1.49827 -1.23937,-2.24569 -0.38488,-0.90396 -0.87989,-1.75848 -1.16411,-2.70619 -0.16925,-1.07607 -0.0597,-2.17336 -0.0907,-3.25973 0.0114,-1.02516 0.0109,-2.0643 0.26078,-3.06529 0.30363,-0.89515 0.90223,-1.51766 1.64161,-2.09159 0.77758,-0.82667 1.71714,-1.44641 2.6122,-2.13385 0.90199,-0.70261 1.79216,-1.40668 2.67872,-2.12942 1.67722,-1.18216 -0.75486,0.50476 1.05886,-0.65918 0.78711,-0.50512 1.31358,-1.31297 2.07508,-1.85796 1.00825,-0.91412 1.92426,-1.95373 2.82519,-2.96663 0.8015,-1.14285 1.69016,-2.26478 2.13537,-3.60442 0.54732,-1.12624 0.94377,-2.31529 1.27773,-3.52048 0.42558,-1.43723 0.42233,-2.91654 0.36772,-4.40547 -0.0188,-1.24432 -0.0281,-2.5034 -0.27512,-3.72753 -0.26005,-0.9645 -0.71837,-1.85694 -0.94789,-2.83206 -0.36351,-1.17415 -0.51268,-2.39443 -0.56412,-3.62021 -0.12914,-1.35149 -0.39878,-2.69418 -0.40807,-4.0516 0.005,-1.40006 -0.005,-2.80007 0.003,-4.20015 -0.008,-1.40395 0.0116,-2.8081 0.0214,-4.21198 1.59465,-4.910368 7.28239,-8.254624 7.93004,-4.846259 0.26789,1.085263 0.50515,2.160929 0.60159,3.278809 0.18348,1.21022 0.23524,2.4169 0.19865,3.64157 -1.1e-4,1.09982 0.004,2.20061 -0.0594,3.29905 -0.0843,1.12836 -0.23114,2.25253 -0.59394,3.33015 -0.32255,1.02699 -0.46937,2.10643 -0.4332,3.18231 -0.0199,1.14947 -0.0501,2.30831 -0.32999,3.42997 -0.36396,1.25522 -0.96046,2.40563 -1.57774,3.55343 -0.52236,1.12989 -1.25714,2.09207 -1.99953,3.08629 -0.64969,0.94276 -1.20346,1.9308 -2.05648,2.71213 -0.76345,0.79047 -1.39324,1.68087 -2.24123,2.38988 -0.84466,0.89306 -1.77022,1.71756 -2.74317,2.46633 -0.91231,0.6507 -1.66145,1.76371 -2.47679,2.55635 -0.9171,0.90686 -1.73731,1.88932 -2.74802,2.69487 -0.75787,0.76434 -1.3684,1.65867 -2.07084,2.47064 -0.85572,0.72557 -1.62719,1.53816 -2.28047,2.45086 -0.56216,0.91714 -1.13509,1.83179 -1.65542,2.76894 -0.57219,0.99236 -1.03669,2.02729 -1.54937,3.04802 -0.50279,0.88287 -0.8508,1.82712 -0.79465,2.86048 -0.003,1.09063 -0.009,2.18124 -0.0106,3.27187 0.003,1.05893 -0.003,2.12413 0.15783,3.1736 0.19373,0.95278 0.53144,1.81684 1.22719,2.52384 0.80052,0.66829 1.71371,1.18739 2.5554,1.80095 1.39255,1.00826 2.78749,2.01343 4.13951,3.07642 1.46608,1.05462 2.97751,2.07329 4.55536,2.9492 l -6.75138,4.44216 z"
       inkscape:connector-curvature="0"
       sodipodi:nodetypes="cccccccccccccccccccccccccccccccccccccccccccccccccccccccccccccccccccccccccccccccccccccccccccccccccccccccccccccccccc" />
    <path
       style="fill:none;fill-opacity:1;stroke:#000000;stroke-width:3.38399982;stroke-linecap:round;stroke-linejoin:miter;stroke-miterlimit:4;stroke-dasharray:none;stroke-opacity:1"
       id="path5571"
       d="m -308.73245,180.795 c -1.49042,-0.91198 -2.9361,-1.9041 -4.49704,-2.69343 -1.17986,-0.56725 -2.16897,-1.44564 -3.35968,-1.98853 -1.12297,-0.19867 -1.82459,-0.65915 -2.69885,-1.34554 -0.87329,-0.69861 -1.47019,-1.66075 -2.17954,-2.50941 -0.81314,-0.85333 -1.47383,-1.80769 -1.91867,-2.89819 -0.33944,-0.99492 -0.86212,-1.90533 -1.1901,-2.90355 -0.29154,-1.02977 -0.32697,-2.10355 -0.35475,-3.16624 -0.003,-1.10394 -0.048,-2.21013 0.038,-3.31145 0.0964,-1.26044 0.49708,-2.37843 1.15351,-3.44762 0.71323,-1.0603 1.6846,-1.90688 2.60636,-2.78042 0.68548,-0.70459 1.52235,-1.23451 2.30843,-1.81985 2.5636,-1.86282 5.56056,-3.2375 8.20047,-4.84693 2.10339,-1.28233 -4.26553,2.46583 -6.40659,3.6842 -0.21953,0.12492 0.31303,-0.21008 0.85942,-0.55542 3.20558,-2.03351 6.51983,-3.87456 9.80895,-5.7765 -20.98982,12.01421 17.52301,-10.02321 -3.57857,2.08636 4.15671,-3.95079 5.26322,-3.33995 8.51077,-4.63241 0.47956,-0.19085 0.90242,-0.4244 1.40115,-0.57818 0.1256,-0.0764 0.50457,-0.30182 0.37682,-0.22908 -2.16688,1.2339 -4.32562,2.48207 -6.49441,3.71263 -0.13776,0.0782 0.26358,-0.17617 0.40087,-0.25517 2.4297,-1.39804 4.85614,-2.80195 7.29965,-4.17568 2.1731,-1.2217 -4.32123,2.48737 -6.48838,3.71959 -0.13877,0.0789 0.26842,-0.17286 0.40262,-0.2593 0.79324,-0.61807 1.58027,-1.24833 2.31328,-1.93748 0.63984,-0.49714 1.03412,-1.2158 1.5427,-1.83179 0.45143,-0.65381 0.78142,-1.40924 1.03698,-2.16172 0.24278,-0.9309 0.35653,-1.89305 0.13931,-2.83521 -0.28549,-1.32863 -1.08527,-2.43388 -1.81169,-3.5513 -0.70612,-1.05799 -1.58638,-1.98573 -2.34534,-3.00601 -0.79457,-1.00873 0.77205,1.02951 0,0 -0.94274,-1.07455 -4.03897,-5.35497 -4.91935,-6.47531 -0.82481,-1.45827 -1.79601,-2.81349 -2.80995,-4.14597 -6.41582,-4.83608 -7.63787,-14.41703 -2.60819,-8.49588 0.96337,1.38158 8.35206,3.13321 9.383,4.46652 1.02138,1.32752 2.0373,2.64904 2.86586,4.10877 0.86429,1.13852 1.6636,2.32574 2.59303,3.41431 0.77851,1.02702 1.58091,2.03312 2.36498,3.05464 0.76771,1.03239 1.65322,1.97897 2.34045,3.07099 0.75991,1.19044 1.62388,2.34515 1.97757,3.73835 0.3239,1.05971 0.28588,2.11357 0.0852,3.20059 -0.18685,0.8618 -0.57537,1.61627 -0.89948,2.42786 -0.46368,0.69074 -1.02534,1.31364 -1.49005,2.0056 -0.80084,0.61948 -1.49924,1.36806 -2.30283,1.98801 -2.46814,2.13665 -0.50909,0.48124 -7.63207,4.52286 -2.16114,1.22624 4.29758,-2.49553 6.4479,-3.74061 0.13539,-0.0784 -0.26768,0.162 -0.40301,0.24049 -7.36749,4.27366 -4.64585,3.2399 -7.6907,4.36621 -2.85007,1.17575 -8.07082,3.68306 3.86188,-2.58612 -23.83657,13.6945 4.17026,-2.48904 -2.71541,1.53802 -2.44756,1.43145 -4.91043,2.83654 -7.36566,4.25481 11.82754,-6.8673 6.50677,-3.79757 3.86458,-2.15841 -2.56804,1.76589 -5.74053,3.33123 -8.13898,4.81719 -2.0847,1.2916 4.23471,-2.47481 6.36003,-3.69844 0.30163,-0.17365 -1.13067,0.73307 -0.88895,0.54764 -0.77573,0.6015 -1.5513,1.17444 -2.36339,1.71808 -0.8564,0.92891 -1.89867,1.67298 -2.69592,2.65683 -0.69826,0.94788 -1.18977,1.89755 -1.28225,3.09392 -0.1837,1.05573 -0.0544,2.13891 -0.0857,3.20676 0.0175,0.99003 0.0289,1.99108 0.26193,2.95902 0.29512,0.98958 0.80942,1.88844 1.14684,2.86372 0.38648,1.03075 1.04288,1.88568 1.79223,2.68621 0.65191,0.82289 1.25924,1.70643 2.11003,2.34181 0.78544,0.61416 1.66235,0.88415 2.58987,1.22827 1.13581,0.62689 2.14014,1.45933 3.29515,2.05431 1.54821,0.87932 3.01755,1.897 4.63831,2.64701 l -6.76268,4.37557 z"
       inkscape:connector-curvature="0"
       sodipodi:nodetypes="ccccccccccccccccccccccccccccccccccccccccccccccccccscccccccccccccccccc" />
    <path
       style="fill:#000000;fill-opacity:1;stroke:#000000;stroke-width:3.02982903;stroke-linecap:round;stroke-linejoin:round;stroke-miterlimit:4;stroke-dasharray:none;stroke-opacity:1"
       id="path4627-77"
       d="m -158.87085,62.624841 c -0.56431,-0.295184 -1.1026,-0.670891 -1.63119,-1.070046 -0.61533,-0.520372 -1.23362,-1.046025 -1.78915,-1.685509 -0.35307,-0.372078 -0.68676,-0.774242 -1.01534,-1.185477 -0.20613,-0.244182 -0.36736,-0.547042 -0.50717,-0.86598 -0.17551,-0.366139 -0.26021,-0.772352 -0.30511,-1.201951 -0.0204,-0.323933 -0.0408,-0.651881 -0.001,-0.975088 0.0204,-0.156762 0.0714,-0.389505 0.10205,-0.542344 0.13776,-0.593223 0.38879,-1.108546 0.66737,-1.590576 0.40308,-0.706356 0.89391,-1.301369 1.39383,-1.873365 0.54084,-0.605399 1.13106,-1.119709 1.73037,-1.606765 0.67962,-0.554464 0.19899,-0.164705 1.52476,-1.211547 0.0816,-0.06103 0.1551,-0.121798 0.23164,-0.182707 0.0714,-0.05638 0.28674,-0.225624 0.21531,-0.169209 -0.88575,0.698046 -1.08269,0.896648 -0.64492,0.478241 0.30409,-0.346887 0.60819,-0.693922 0.88065,-1.088762 0.24082,-0.348816 0.42858,-0.754649 0.58981,-1.180047 0.13164,-0.344341 0.17246,-0.724004 0.19593,-1.106654 0.0408,-0.507706 -0.0612,-0.990597 -0.18266,-1.464182 -0.23164,-0.855651 -0.56635,-1.641347 -0.92861,-2.40144 -0.2796,-0.599183 -0.63574,-1.11761 -0.9531,-1.676027 0,0 1.0426,-0.855935 1.0426,-0.855935 v 0 c 0.30409,0.574775 0.63165,1.125292 0.91432,1.721123 0.36123,0.772558 0.70411,1.565512 0.96738,2.411855 0.13878,0.480764 0.26532,0.981269 0.2347,1.507382 -0.0204,0.400587 -0.051,0.804382 -0.17857,1.169739 -0.15715,0.443566 -0.34798,0.865823 -0.59084,1.230768 -0.2643,0.415574 -0.57247,0.760401 -0.87453,1.122241 -0.55308,0.568342 -0.13776,0.156265 -1.39913,1.168175 -0.0714,0.05584 -0.1398,0.109381 -0.21021,0.163758 -0.0714,0.05875 -0.30308,0.237429 -0.22756,0.175642 0.25103,-0.207629 0.5041,-0.409361 0.75615,-0.613225 0.0918,-0.07379 -0.18266,0.148668 -0.27348,0.222999 -0.60411,0.477902 -1.19597,0.990465 -1.74344,1.58606 -0.49389,0.55442 -0.97963,1.136282 -1.37678,1.827985 -0.27451,0.462193 -0.51635,0.955482 -0.67044,1.518834 -0.0204,0.07544 -0.0918,0.432968 -0.10306,0.515053 -0.0408,0.307408 -0.0306,0.622533 -0.007,0.931789 0.0408,0.406456 0.11225,0.794584 0.28471,1.136756 0.1398,0.300361 0.29593,0.589852 0.48573,0.834357 0.31124,0.42456 0.63778,0.824577 0.97555,1.20928 0.54186,0.638235 1.14116,1.177037 1.75364,1.677281 0.54185,0.394154 1.09698,0.776303 1.69833,0.965399 0,0 -1.02729,0.972119 -1.02729,0.972119 z"
       inkscape:connector-curvature="0" />
    <path
       style="fill:#000000;fill-opacity:1;stroke:#000000;stroke-width:3.02982903;stroke-linecap:round;stroke-linejoin:round;stroke-miterlimit:4;stroke-dasharray:none;stroke-opacity:1"
       id="path4627-77-3"
       d="m -143.9315,63.108938 c -0.56431,-0.295184 -1.1026,-0.67089 -1.63119,-1.070045 -0.61533,-0.520372 -1.23362,-1.046025 -1.78915,-1.685508 -0.35307,-0.372079 -0.68676,-0.774243 -1.01534,-1.185477 -0.20613,-0.244183 -0.36736,-0.547043 -0.50717,-0.865981 -0.17551,-0.366138 -0.26021,-0.772352 -0.30511,-1.201951 -0.0204,-0.323933 -0.0408,-0.651881 -0.001,-0.975088 0.0204,-0.156762 0.0714,-0.389504 0.10205,-0.542344 0.13776,-0.593223 0.38879,-1.108545 0.66737,-1.590576 0.40308,-0.706356 0.89391,-1.301368 1.39383,-1.873365 0.54084,-0.605398 1.13106,-1.119708 1.73037,-1.606765 0.67962,-0.554463 0.19899,-0.164704 1.52476,-1.211547 0.0816,-0.06103 0.1551,-0.121798 0.23164,-0.182706 0.0714,-0.05639 0.28674,-0.225624 0.21531,-0.16921 -0.88575,0.698046 -1.08269,0.896648 -0.64492,0.478242 0.30409,-0.346888 0.60819,-0.693923 0.88065,-1.088763 0.24082,-0.348816 0.42858,-0.754649 0.58981,-1.180046 0.13164,-0.344341 0.17246,-0.724005 0.19593,-1.106654 0.0408,-0.507707 -0.0612,-0.990598 -0.18266,-1.464183 -0.23164,-0.855651 -0.56635,-1.641347 -0.92861,-2.40144 -0.2796,-0.599183 -0.63574,-1.11761 -0.9531,-1.676026 0,0 1.0426,-0.855935 1.0426,-0.855935 v 0 c 0.30409,0.574775 0.63165,1.125292 0.91432,1.721122 0.36123,0.772559 0.70411,1.565513 0.96738,2.411856 0.13878,0.480763 0.26532,0.981268 0.2347,1.507381 -0.0204,0.400587 -0.051,0.804382 -0.17857,1.169739 -0.15715,0.443566 -0.34798,0.865823 -0.59084,1.230768 -0.2643,0.415575 -0.57247,0.760401 -0.87453,1.122241 -0.55308,0.568342 -0.13776,0.156265 -1.39913,1.168175 -0.0714,0.05584 -0.1398,0.109381 -0.21021,0.163758 -0.0714,0.05875 -0.30308,0.23743 -0.22756,0.175642 0.25103,-0.207629 0.5041,-0.40936 0.75615,-0.613225 0.0918,-0.07379 -0.18266,0.148668 -0.27348,0.222999 -0.60411,0.477902 -1.19597,0.990465 -1.74344,1.58606 -0.49389,0.554421 -0.97963,1.136283 -1.37678,1.827986 -0.27451,0.462193 -0.51635,0.955481 -0.67044,1.518833 -0.0204,0.07544 -0.0918,0.432969 -0.10306,0.515054 -0.0408,0.307407 -0.0306,0.622532 -0.007,0.931788 0.0408,0.406456 0.11225,0.794584 0.28471,1.136756 0.1398,0.300361 0.29593,0.589853 0.48573,0.834357 0.31124,0.42456 0.63778,0.824577 0.97555,1.20928 0.54186,0.638235 1.14116,1.177037 1.75364,1.677281 0.54185,0.394153 1.09698,0.776302 1.69833,0.965399 0,0 -1.02729,0.972118 -1.02729,0.972118 z"
       inkscape:connector-curvature="0" />
    <path
       style="fill:#000000;fill-opacity:1;stroke:#000000;stroke-width:3.02982903;stroke-linecap:round;stroke-linejoin:round;stroke-miterlimit:4;stroke-dasharray:none;stroke-opacity:1"
       id="path4627-77-5"
       d="m -128.0564,62.66287 c -0.56431,-0.295184 -1.1026,-0.670891 -1.63119,-1.070045 -0.61533,-0.520372 -1.23362,-1.046025 -1.78915,-1.685508 -0.35307,-0.372079 -0.68676,-0.774243 -1.01534,-1.185477 -0.20613,-0.244183 -0.36736,-0.547043 -0.50717,-0.865981 -0.17551,-0.366138 -0.26021,-0.772352 -0.30511,-1.201951 -0.0204,-0.323933 -0.0408,-0.651881 -0.001,-0.975088 0.0204,-0.156762 0.0714,-0.389505 0.10205,-0.542344 0.13776,-0.593223 0.38879,-1.108546 0.66737,-1.590576 0.40308,-0.706356 0.89391,-1.301369 1.39383,-1.873365 0.54084,-0.605398 1.13106,-1.119708 1.73037,-1.606765 0.67962,-0.554463 0.19899,-0.164704 1.52476,-1.211547 0.0816,-0.06103 0.1551,-0.121798 0.23164,-0.182706 0.0714,-0.05639 0.28674,-0.225624 0.21531,-0.16921 -0.88575,0.698046 -1.08269,0.896648 -0.64492,0.478242 0.30409,-0.346888 0.60819,-0.693923 0.88065,-1.088763 0.24082,-0.348816 0.42858,-0.754649 0.58981,-1.180046 0.13164,-0.344341 0.17246,-0.724005 0.19593,-1.106655 0.0408,-0.507706 -0.0612,-0.990597 -0.18266,-1.464182 -0.23164,-0.855651 -0.56635,-1.641347 -0.92861,-2.40144 -0.2796,-0.599183 -0.63574,-1.11761 -0.9531,-1.676026 0,0 1.0426,-0.855936 1.0426,-0.855936 v 0 c 0.30409,0.574775 0.63165,1.125293 0.91432,1.721123 0.36123,0.772559 0.70411,1.565513 0.96738,2.411856 0.13878,0.480763 0.26532,0.981268 0.2347,1.507381 -0.0204,0.400587 -0.051,0.804382 -0.17857,1.169739 -0.15715,0.443566 -0.34798,0.865823 -0.59084,1.230768 -0.2643,0.415575 -0.57247,0.760401 -0.87453,1.122241 -0.55308,0.568342 -0.13776,0.156265 -1.39913,1.168175 -0.0714,0.05584 -0.1398,0.109381 -0.21021,0.163758 -0.0714,0.05875 -0.30308,0.23743 -0.22756,0.175642 0.25103,-0.207629 0.5041,-0.40936 0.75615,-0.613225 0.0918,-0.07379 -0.18266,0.148668 -0.27348,0.222999 -0.60411,0.477902 -1.19597,0.990465 -1.74344,1.58606 -0.49389,0.554421 -0.97963,1.136282 -1.37678,1.827986 -0.27451,0.462193 -0.51635,0.955481 -0.67044,1.518833 -0.0204,0.07544 -0.0918,0.432969 -0.10306,0.515054 -0.0408,0.307407 -0.0306,0.622532 -0.007,0.931788 0.0408,0.406456 0.11225,0.794584 0.28471,1.136756 0.1398,0.300361 0.29593,0.589853 0.48573,0.834357 0.31124,0.42456 0.63778,0.824577 0.97555,1.20928 0.54186,0.638235 1.14116,1.177037 1.75364,1.677281 0.54185,0.394153 1.09698,0.776302 1.69833,0.965399 0,0 -1.02729,0.972118 -1.02729,0.972118 z"
       inkscape:connector-curvature="0" />
    <path
       style="fill:#000000;fill-opacity:1;stroke:#000000;stroke-width:3.02982903;stroke-linecap:round;stroke-linejoin:round;stroke-miterlimit:4;stroke-dasharray:none;stroke-opacity:1"
       id="path4627-77-5-0"
       d="m -112.93792,62.645985 c -0.56431,-0.295183 -1.1026,-0.67089 -1.63119,-1.070045 -0.61533,-0.520372 -1.23362,-1.046025 -1.78915,-1.685508 -0.35307,-0.372079 -0.68676,-0.774243 -1.01534,-1.185477 -0.20613,-0.244183 -0.36736,-0.547042 -0.50717,-0.865981 -0.17551,-0.366138 -0.26021,-0.772352 -0.30511,-1.201951 -0.0204,-0.323933 -0.0408,-0.651881 -0.001,-0.975088 0.0204,-0.156761 0.0714,-0.389504 0.10205,-0.542343 0.13776,-0.593224 0.38879,-1.108546 0.66737,-1.590577 0.40308,-0.706355 0.89391,-1.301368 1.39383,-1.873365 0.54084,-0.605398 1.13106,-1.119708 1.73037,-1.606764 0.67962,-0.554464 0.19899,-0.164705 1.52476,-1.211548 0.0816,-0.06103 0.1551,-0.121798 0.23164,-0.182706 0.0714,-0.05639 0.28674,-0.225624 0.21531,-0.169209 -0.88575,0.698045 -1.08269,0.896647 -0.64492,0.478241 0.30409,-0.346888 0.60819,-0.693923 0.88065,-1.088762 0.24082,-0.348817 0.42858,-0.754649 0.58981,-1.180047 0.13164,-0.344341 0.17246,-0.724005 0.19593,-1.106654 0.0408,-0.507706 -0.0612,-0.990598 -0.18266,-1.464183 -0.23164,-0.855651 -0.56635,-1.641347 -0.92861,-2.401439 -0.2796,-0.599183 -0.63574,-1.117611 -0.9531,-1.676027 0,0 1.0426,-0.855935 1.0426,-0.855935 v 0 c 0.30409,0.574775 0.63165,1.125292 0.91432,1.721122 0.36123,0.772559 0.70411,1.565513 0.96738,2.411856 0.13878,0.480764 0.26532,0.981268 0.2347,1.507382 -0.0204,0.400587 -0.051,0.804382 -0.17857,1.169739 -0.15715,0.443566 -0.34798,0.865823 -0.59084,1.230767 -0.2643,0.415575 -0.57247,0.760402 -0.87453,1.122242 -0.55308,0.568341 -0.13776,0.156265 -1.39913,1.168174 -0.0714,0.05584 -0.1398,0.109381 -0.21021,0.163758 -0.0714,0.05875 -0.30308,0.23743 -0.22756,0.175643 0.25103,-0.20763 0.5041,-0.409361 0.75615,-0.613225 0.0918,-0.07379 -0.18266,0.148668 -0.27348,0.222999 -0.60411,0.477901 -1.19597,0.990465 -1.74344,1.586059 -0.49389,0.554421 -0.97963,1.136283 -1.37678,1.827986 -0.27451,0.462193 -0.51635,0.955482 -0.67044,1.518834 -0.0204,0.07544 -0.0918,0.432968 -0.10306,0.515053 -0.0408,0.307408 -0.0306,0.622532 -0.007,0.931788 0.0408,0.406457 0.11225,0.794585 0.28471,1.136757 0.1398,0.300361 0.29593,0.589852 0.48573,0.834357 0.31124,0.42456 0.63778,0.824577 0.97555,1.209279 0.54186,0.638235 1.14116,1.177038 1.75364,1.677281 0.54185,0.394154 1.09698,0.776302 1.69833,0.965399 0,0 -1.02729,0.972118 -1.02729,0.972118 z"
       inkscape:connector-curvature="0" />
  </g>
</svg>
