<?xml version="1.0" encoding="UTF-8" standalone="no"?>
<!-- Created with Inkscape (http://www.inkscape.org/) -->

<svg
   xmlns:dc="http://purl.org/dc/elements/1.1/"
   xmlns:cc="http://creativecommons.org/ns#"
   xmlns:rdf="http://www.w3.org/1999/02/22-rdf-syntax-ns#"
   xmlns:svg="http://www.w3.org/2000/svg"
   xmlns="http://www.w3.org/2000/svg"
   xmlns:sodipodi="http://sodipodi.sourceforge.net/DTD/sodipodi-0.dtd"
   xmlns:inkscape="http://www.inkscape.org/namespaces/inkscape"
   width="770.18604mm"
   height="828.07782mm"
   viewBox="0 0 770.18603 828.07782"
   version="1.1"
   id="svg967"
   inkscape:version="0.92.3 (2405546, 2018-03-11)"
   sodipodi:docname="cup_without_border.svg">
  <defs
     id="defs961" />
  <sodipodi:namedview
     id="base"
     pagecolor="#ffffff"
     bordercolor="#666666"
     borderopacity="1.0"
     inkscape:pageopacity="0.0"
     inkscape:pageshadow="2"
     inkscape:zoom="0.08"
     inkscape:cx="3063.9599"
     inkscape:cy="1667.9489"
     inkscape:document-units="mm"
     inkscape:current-layer="layer1"
     showgrid="false"
     inkscape:window-width="1280"
     inkscape:window-height="664"
     inkscape:window-x="-4"
     inkscape:window-y="-4"
     inkscape:window-maximized="1"
     showguides="false"
     inkscape:lockguides="false"
     fit-margin-top="0"
     fit-margin-left="0"
     fit-margin-right="0"
     fit-margin-bottom="0"
     inkscape:pagecheckerboard="true" />
  <metadata
     id="metadata964">
    <rdf:RDF>
      <cc:Work
         rdf:about="">
        <dc:format>image/svg+xml</dc:format>
        <dc:type
           rdf:resource="http://purl.org/dc/dcmitype/StillImage" />
        <dc:title></dc:title>
      </cc:Work>
    </rdf:RDF>
  </metadata>
  <g
     inkscape:label="Layer 1"
     inkscape:groupmode="layer"
     id="layer1"
     transform="translate(18407.114,15706.03)">
    <path
       style="fill:#000000;fill-opacity:1;stroke:#000000;stroke-width:82.38367462;stroke-miterlimit:4;stroke-dasharray:none;stroke-opacity:1"
       d="m -18363.978,-15315.505 a 274.72149,359.39886 0 0 0 274.135,337.744 274.72149,359.39886 0 0 0 273.894,-337.744 z"
       id="path4610"
       inkscape:connector-curvature="0" />
    <ellipse
       style="fill:#000000;fill-opacity:1;stroke:#000000;stroke-width:35.55439758;stroke-miterlimit:4;stroke-dasharray:none;stroke-opacity:1"
       id="path4615"
       cx="-18089.811"
       cy="-14931.155"
       rx="266.87372"
       ry="35.425716" />
    <ellipse
       style="fill:none;fill-opacity:1;stroke:#000000;stroke-width:45.92145157;stroke-miterlimit:4;stroke-dasharray:none;stroke-opacity:1"
       id="path4617"
       transform="matrix(0.87692758,-0.48062254,0.66889547,0.74335647,0,0)"
       ry="89.208656"
       rx="197.51823"
       cy="-22483.746"
       cx="-3200.0376" />
    <path
       style="fill:#000000;fill-opacity:1;stroke:#000000;stroke-width:39.3523407;stroke-linecap:round;stroke-linejoin:round;stroke-miterlimit:4;stroke-dasharray:none;stroke-opacity:1"
       id="path4627-77-5-0"
       d="m -18203.344,-15518.163 c 3.899,-0.197 7.86,0.112 11.828,0.576 4.762,0.833 9.555,1.685 14.291,3.334 2.921,0.867 5.813,1.952 8.699,3.102 1.775,0.648 3.451,1.746 5.049,2.995 1.919,1.388 3.435,3.27 4.79,5.398 0.947,1.648 1.905,3.316 2.513,5.148 0.29,0.891 0.605,2.279 0.828,3.181 0.76,3.561 0.689,7.064 0.38,10.476 -0.426,4.985 -1.626,9.654 -2.935,14.23 -1.451,4.88 -3.412,9.432 -5.493,13.869 -2.354,5.043 -0.683,1.489 -5.366,11.142 -0.297,0.576 -0.549,1.126 -0.818,1.686 -0.252,0.52 -1.015,2.084 -0.763,1.563 3.132,-6.442 3.717,-8.103 2.358,-4.532 -0.799,2.778 -1.599,5.557 -2.098,8.49 -0.443,2.591 -0.443,5.318 -0.246,8.067 0.154,2.228 0.904,4.36 1.758,6.454 1.079,2.808 2.889,5.041 4.783,7.164 3.49,3.798 7.374,6.906 11.345,9.793 3.097,2.294 6.413,3.924 9.615,5.886 0,0 -3.598,7.763 -3.598,7.763 v 0 c -3.171,-2.089 -6.41,-3.977 -9.516,-6.244 -3.997,-2.956 -7.945,-6.077 -11.587,-9.727 -2.009,-2.108 -4.001,-4.357 -5.184,-7.231 -0.917,-2.179 -1.786,-4.406 -2.016,-6.733 -0.267,-2.831 -0.292,-5.655 0.12,-8.338 0.401,-3.017 1.229,-5.797 1.978,-8.647 1.615,-4.722 0.364,-1.254 4.779,-10.522 0.253,-0.517 0.496,-1.013 0.748,-1.519 0.246,-0.533 1.075,-2.197 0.814,-1.636 -0.863,1.878 -1.751,3.73 -2.629,5.592 -0.321,0.675 0.634,-1.354 0.948,-2.029 2.131,-4.404 4.105,-8.952 5.618,-13.801 1.322,-4.464 2.527,-9.048 2.957,-13.937 0.338,-3.295 0.414,-6.652 -0.178,-10.107 -0.08,-0.461 -0.603,-2.572 -0.752,-3.04 -0.564,-1.75 -1.431,-3.383 -2.358,-4.943 -1.273,-2.02 -2.669,-3.847 -4.509,-5.117 -1.551,-1.151 -3.164,-2.195 -4.849,-2.895 -2.824,-1.274 -5.67,-2.371 -8.539,-3.351 -4.657,-1.685 -9.377,-2.666 -14.072,-3.402 -4.029,-0.396 -8.101,-0.687 -11.933,0.185 0,0 3.215,-8.329 3.215,-8.329 z"
       inkscape:connector-curvature="0" />
    <path
       style="fill:#000000;fill-opacity:1;stroke:#000000;stroke-width:56.74460983;stroke-linecap:round;stroke-linejoin:round;stroke-miterlimit:4;stroke-dasharray:none;stroke-opacity:1"
       id="path4627-77-5-0-9"
       d="m -18029.437,-15677.658 c 6.261,2.737 12.797,6.474 19.396,10.507 8.014,5.362 16.084,10.783 24.334,17.656 5.038,3.958 10.102,8.302 15.179,12.763 3.103,2.634 6.199,6.033 9.22,9.656 3.588,4.138 6.692,8.885 9.619,13.968 2.099,3.852 4.223,7.752 5.837,11.681 0.775,1.907 1.76,4.768 2.43,6.643 2.45,7.302 3.532,13.832 4.195,20.003 1.012,9.034 0.66,16.859 0.1,24.421 -0.689,8.02 -2.316,15.019 -4.178,21.705 -2.1,7.606 -0.601,2.255 -4.904,16.677 -0.285,0.847 -0.507,1.679 -0.753,2.518 -0.231,0.777 -0.935,3.11 -0.703,2.332 2.882,-9.619 3.264,-12.278 2.278,-6.644 -0.348,4.587 -0.696,9.177 -0.505,14.293 0.167,4.521 1.098,9.649 2.357,14.975 1.011,4.312 2.956,8.919 5.057,13.536 2.711,6.141 6.412,11.782 10.211,17.283 6.963,9.923 14.328,18.862 21.76,27.454 5.811,6.783 11.749,12.489 17.617,18.729 0,0 -3.188,11.734 -3.188,11.734 v 0 c -5.86,-6.455 -11.762,-12.587 -17.578,-19.325 -7.497,-8.743 -14.972,-17.757 -22.131,-27.523 -3.98,-5.563 -7.982,-11.381 -10.884,-17.727 -2.233,-4.828 -4.404,-9.709 -5.572,-14.268 -1.401,-5.537 -2.406,-10.867 -2.653,-15.584 -0.379,-5.353 0.01,-9.922 0.256,-14.685 1.008,-7.594 0.164,-2.068 4.162,-15.98 0.235,-0.77 0.46,-1.509 0.696,-2.26 0.217,-0.805 0.994,-3.275 0.762,-2.427 -0.758,2.844 -1.568,5.619 -2.357,8.419 -0.29,1.015 0.566,-2.04 0.845,-3.059 1.956,-6.583 3.606,-13.563 4.406,-21.475 0.62,-7.343 1.01,-15.004 0.04,-23.854 -0.577,-5.927 -1.6,-12.18 -3.741,-19.148 -0.289,-0.932 -1.858,-5.317 -2.259,-6.317 -1.514,-3.74 -3.48,-7.501 -5.517,-11.173 -2.755,-4.812 -5.646,-9.361 -9.066,-13.216 -2.91,-3.4 -5.885,-6.647 -8.859,-9.307 -5.019,-4.645 -10.013,-8.974 -15.005,-13.105 -8.134,-6.878 -16.131,-12.483 -24.002,-17.608 -6.675,-3.954 -13.383,-7.745 -19.305,-9.158 0,0 2.371,-13.103 2.371,-13.103 z"
       inkscape:connector-curvature="0" />
    <path
       style="fill:#000000;fill-opacity:1;stroke:#000000;stroke-width:55.2653923;stroke-linecap:round;stroke-linejoin:round;stroke-miterlimit:4;stroke-dasharray:none;stroke-opacity:1"
       id="path4627-77-5-0-9-4"
       d="m -18111.492,-15594.731 c 4.14,1.446 8.417,3.587 12.722,5.935 5.204,3.185 10.444,6.408 15.732,10.659 3.241,2.424 6.48,5.124 9.723,7.906 1.986,1.633 3.928,3.818 5.807,6.168 2.241,2.674 4.119,5.825 5.859,9.232 1.237,2.592 2.489,5.216 3.39,7.904 0.432,1.305 0.959,3.277 1.32,4.568 1.3,5.04 1.704,9.639 1.84,14.015 0.227,6.404 -0.416,12.051 -1.19,17.528 -0.883,5.816 -2.356,10.977 -3.973,15.932 -1.826,5.637 -0.527,1.67 -4.211,12.383 -0.238,0.632 -0.433,1.248 -0.644,1.87 -0.199,0.577 -0.8,2.311 -0.601,1.734 2.466,-7.147 2.864,-9.088 1.9,-4.96 -0.475,3.322 -0.948,6.647 -1.081,10.305 -0.119,3.232 0.254,6.838 0.841,10.557 0.47,3.013 1.563,6.159 2.762,9.301 1.538,4.184 3.779,7.928 6.093,11.563 4.251,6.548 8.828,12.355 13.467,17.908 3.625,4.388 7.392,7.993 11.084,11.987 0,0 -2.784,8.69 -2.784,8.69 v 0 c -3.675,-4.149 -7.396,-8.062 -11.026,-12.417 -4.677,-5.656 -9.324,-11.509 -13.717,-17.928 -2.436,-3.664 -4.873,-7.51 -6.531,-11.826 -1.278,-3.282 -2.512,-6.606 -3.076,-9.783 -0.673,-3.86 -1.086,-7.603 -1.013,-10.97 0.02,-3.813 0.52,-7.126 0.931,-10.567 1.08,-5.536 0.218,-1.498 3.668,-11.82 0.2,-0.572 0.392,-1.121 0.592,-1.68 0.19,-0.596 0.849,-2.434 0.646,-1.807 -0.665,2.105 -1.361,4.166 -2.045,6.242 -0.25,0.752 0.492,-1.512 0.736,-2.267 1.675,-4.889 3.163,-10.039 4.117,-15.786 0.801,-5.325 1.462,-10.857 1.253,-17.132 -0.09,-4.208 -0.467,-8.613 -1.573,-13.439 -0.149,-0.646 -0.997,-3.664 -1.22,-4.349 -0.842,-2.56 -1.993,-5.098 -3.197,-7.565 -1.637,-3.227 -3.38,-6.253 -5.52,-8.738 -1.815,-2.2 -3.683,-4.285 -5.579,-5.948 -3.193,-2.919 -6.385,-5.613 -9.586,-8.165 -5.209,-4.264 -10.389,-7.626 -15.507,-10.652 -4.361,-2.286 -8.753,-4.451 -12.73,-4.974 0,0 2.296,-9.606 2.296,-9.606 z"
       inkscape:connector-curvature="0" />
    <circle
       style="fill:#000000;fill-opacity:1;stroke:#000000;stroke-width:0.6934334;stroke-linecap:round;stroke-linejoin:miter;stroke-miterlimit:4;stroke-dasharray:none;stroke-opacity:1"
       id="path2544"
       cx="-18266.08"
       cy="-15421.266"
       r="37.770649" />
  </g>
</svg>
