<?xml version="1.0" encoding="UTF-8" standalone="no"?>
<!-- Created with Inkscape (http://www.inkscape.org/) -->

<svg
   xmlns:osb="http://www.openswatchbook.org/uri/2009/osb"
   xmlns:dc="http://purl.org/dc/elements/1.1/"
   xmlns:cc="http://creativecommons.org/ns#"
   xmlns:rdf="http://www.w3.org/1999/02/22-rdf-syntax-ns#"
   xmlns:svg="http://www.w3.org/2000/svg"
   xmlns="http://www.w3.org/2000/svg"
   xmlns:sodipodi="http://sodipodi.sourceforge.net/DTD/sodipodi-0.dtd"
   xmlns:inkscape="http://www.inkscape.org/namespaces/inkscape"
   width="277.45108mm"
   height="280.34879mm"
   viewBox="0 0 277.45107 280.34879"
   version="1.1"
   id="svg967"
   inkscape:version="0.92.3 (2405546, 2018-03-11)"
   sodipodi:docname="cup_5.svg">
  <defs
     id="defs961">
    <linearGradient
       id="linearGradient2439"
       osb:paint="solid">
      <stop
         style="stop-color:#ec7d03;stop-opacity:1;"
         offset="0"
         id="stop2437" />
    </linearGradient>
  </defs>
  <sodipodi:namedview
     id="base"
     pagecolor="#ffffff"
     bordercolor="#666666"
     borderopacity="1.0"
     inkscape:pageopacity="0.0"
     inkscape:pageshadow="2"
     inkscape:zoom="0.22461604"
     inkscape:cx="524.317"
     inkscape:cy="529.79298"
     inkscape:document-units="mm"
     inkscape:current-layer="layer1"
     showgrid="false"
     inkscape:window-width="1280"
     inkscape:window-height="664"
     inkscape:window-x="-4"
     inkscape:window-y="-4"
     inkscape:window-maximized="1"
     showguides="true"
     inkscape:lockguides="false"
     fit-margin-top="0"
     fit-margin-left="0"
     fit-margin-right="0"
     fit-margin-bottom="0"
     inkscape:pagecheckerboard="true"
     guidetolerance="4"
     objecttolerance="2" />
  <metadata
     id="metadata964">
    <rdf:RDF>
      <cc:Work
         rdf:about="">
        <dc:format>image/svg+xml</dc:format>
        <dc:type
           rdf:resource="http://purl.org/dc/dcmitype/StillImage" />
        <dc:title></dc:title>
      </cc:Work>
    </rdf:RDF>
  </metadata>
  <g
     inkscape:label="Layer 1"
     inkscape:groupmode="layer"
     id="layer1"
     transform="translate(17914.38,15150.597)">
    <ellipse
       style="fill:#ff7f2a;fill-opacity:1;stroke:#552200;stroke-width:9.968;stroke-miterlimit:4;stroke-dasharray:none;stroke-opacity:1"
       id="path4615-7"
       cx="-17774.492"
       cy="-14908.984"
       rx="105.87885"
       ry="15.777024" />
    <path
       style="fill:#aa4400;fill-opacity:1;stroke:#552200;stroke-width:8.85900021;stroke-miterlimit:4;stroke-dasharray:none;stroke-opacity:1"
       d="m -17822.325,-14918.584 1.249,6.443 c 2.164,1.996 55.078,5.773 80.037,0.148 0.197,-0.03 -0.09,0.26 -0.08,0.09 l 0.442,-7.012 c 10.655,-3.552 23.36,-19.858 31.652,-29.36 11.747,-2.382 26.606,-4.072 38.085,-9.396 16.637,-9.775 25.776,-25.664 28.67,-36.135 -0.602,-15.177 -10.053,-21.431 -18.843,-21.915 -7.29,-0.179 -11.008,-0.474 -18.952,5.485 1.173,-6.414 1.945,-12.224 2.273,-19.097 -100.33,20.684 -147.611,8.062 -199.815,0 -1.954,59.553 40.35,108.47 55.282,110.749 z m 156.18,-77.976 c 4.974,1.706 -1.336,17.372 -9.269,22.875 -8.933,4.104 -6.639,2.982 -15.412,4.219 6.992,-10.996 2,-3.781 8.13,-17.045 4.581,-5.233 1.914,-4.178 16.551,-10.049 z"
       id="path4617"
       inkscape:connector-curvature="0"
       sodipodi:nodetypes="cccscccccccccccccc" />
    <ellipse
       style="fill:#ff7f2a;fill-opacity:1;stroke:#552200;stroke-width:7.436;stroke-linecap:round;stroke-linejoin:miter;stroke-miterlimit:4;stroke-dasharray:none;stroke-opacity:1"
       id="path852"
       cx="-17778.113"
       cy="-15033.532"
       rx="100.08292"
       ry="14.536803" />
    <path
       style="fill:#ffffff;fill-opacity:1;stroke:#552200;stroke-width:4.96515036;stroke-linecap:round;stroke-linejoin:miter;stroke-miterlimit:4;stroke-dasharray:none;stroke-opacity:1"
       id="path825"
       d="m -17779.991,-15065.114 c 2.835,-1.774 0.09,-0.03 -7.489,3.252 -0.338,0.146 0.636,-0.341 0.956,-0.509 1.001,-0.528 1.98,-1.054 2.934,-1.633 1.563,-1.046 3.189,-2.032 4.75,-3.081 1.187,-0.845 2.424,-1.643 3.646,-2.457 0.866,-0.665 1.788,-1.286 2.629,-1.969 0.933,-0.65 1.774,-1.37 2.605,-2.096 0.855,-0.584 1.368,-1.369 1.865,-2.15 0.479,-0.873 0.53,-1.829 0.581,-2.765 0.12,-0.954 -0.02,-1.803 -0.672,-2.623 -0.784,-0.483 -1.656,-0.902 -2.511,-1.318 -0.924,-0.401 -1.856,-0.78 -2.839,-1.096 -1.209,-0.52 -2.557,-0.785 -3.866,-1.104 -1.261,-0.149 -2.264,-0.768 -3.4,-1.153 -1.224,-0.32 -2.424,-0.714 -3.579,-1.165 -1.307,-0.482 -2.721,-0.763 -4.032,-1.229 -1.297,-0.385 -2.313,-1.151 -3.383,-1.817 -1.042,-0.859 -2.367,-1.42 -3.528,-2.162 -0.961,-0.656 -2.078,-1.119 -3.129,-1.677 -1.256,-0.479 -2.264,-1.234 -3.341,-1.909 -0.946,-0.71 -1.511,-1.657 -2.07,-2.568 -0.765,-0.851 -1.201,-1.793 -1.449,-2.806 -0.203,-1.06 -0.202,-2.134 -0.209,-3.203 -0.105,-0.975 0.211,-1.856 0.716,-2.731 0.571,-0.995 1.277,-1.948 2.165,-2.791 1.048,-0.95 1.97,-1.976 2.996,-2.942 0.908,-0.752 1.851,-1.478 2.686,-2.281 0.789,-0.831 1.599,-1.65 2.348,-2.503 6.53,-7.524 13.454,-10.942 21.522,-13.504 v 0 c -1.596,1.152 -3.091,2.385 -4.691,3.532 -1.554,1.192 -3.21,2.302 -4.454,3.714 -1.038,1.027 -2.03,2.078 -3.082,3.097 -0.739,0.853 -1.459,1.722 -2.314,2.508 -0.719,0.903 -1.697,1.64 -2.664,2.381 -1.152,0.882 -2.047,1.923 -2.998,2.934 -0.945,0.745 -1.649,1.584 -2.248,2.523 -0.398,0.822 -1.086,1.532 -0.933,2.467 0,1.026 0,2.056 0.142,3.078 0.193,0.954 0.595,1.818 1.302,2.622 0.498,0.807 1.021,1.645 1.868,2.266 1.018,0.688 2.049,1.356 3.257,1.838 1.108,0.534 2.187,1.08 3.177,1.745 1.179,0.715 2.424,1.359 3.515,2.159 1.033,0.616 2.009,1.298 3.258,1.636 1.346,0.418 2.722,0.779 4.034,1.262 1.196,0.412 2.417,0.77 3.631,1.145 1.058,0.432 2.088,0.895 3.276,1.086 1.339,0.339 2.692,0.644 3.947,1.152 1.021,0.354 2.015,0.735 2.962,1.198 0.949,0.502 2.009,0.924 2.732,1.634 0.717,0.952 1.08,1.917 0.927,3.032 -0.02,1.009 -0.05,2.031 -0.39,3.011 -0.387,0.872 -0.983,1.731 -1.721,2.448 -0.948,0.635 -1.621,1.481 -2.59,2.104 -0.922,0.626 -1.713,1.368 -2.659,1.976 -1.119,0.933 -2.545,1.609 -3.704,2.513 -1.559,1.087 -3.22,2.073 -4.805,3.135 -3.932,2.557 -9.69,5.276 -13.829,6.653 z"
       inkscape:connector-curvature="0"
       sodipodi:nodetypes="ccccccccccccccccccccccccccccccccccccccccccccccccccccccccccccc" />
  </g>
</svg>
