<?xml version="1.0" encoding="UTF-8" standalone="no"?>
<!-- Created with Inkscape (http://www.inkscape.org/) -->

<svg
   xmlns:osb="http://www.openswatchbook.org/uri/2009/osb"
   xmlns:dc="http://purl.org/dc/elements/1.1/"
   xmlns:cc="http://creativecommons.org/ns#"
   xmlns:rdf="http://www.w3.org/1999/02/22-rdf-syntax-ns#"
   xmlns:svg="http://www.w3.org/2000/svg"
   xmlns="http://www.w3.org/2000/svg"
   xmlns:sodipodi="http://sodipodi.sourceforge.net/DTD/sodipodi-0.dtd"
   xmlns:inkscape="http://www.inkscape.org/namespaces/inkscape"
   width="277.45108mm"
   height="280.34879mm"
   viewBox="0 0 277.45107 280.34879"
   version="1.1"
   id="svg967"
   inkscape:version="0.92.3 (2405546, 2018-03-11)"
   sodipodi:docname="cup_without_border_colored_smoke_2.svg">
  <defs
     id="defs961">
    <linearGradient
       id="linearGradient2439"
       osb:paint="solid">
      <stop
         style="stop-color:#ec7d03;stop-opacity:1;"
         offset="0"
         id="stop2437" />
    </linearGradient>
  </defs>
  <sodipodi:namedview
     id="base"
     pagecolor="#ffffff"
     bordercolor="#666666"
     borderopacity="1.0"
     inkscape:pageopacity="0.0"
     inkscape:pageshadow="2"
     inkscape:zoom="0.44923208"
     inkscape:cx="524.317"
     inkscape:cy="529.79298"
     inkscape:document-units="mm"
     inkscape:current-layer="layer1"
     showgrid="false"
     inkscape:window-width="1280"
     inkscape:window-height="664"
     inkscape:window-x="-4"
     inkscape:window-y="-4"
     inkscape:window-maximized="1"
     showguides="true"
     inkscape:lockguides="false"
     fit-margin-top="0"
     fit-margin-left="0"
     fit-margin-right="0"
     fit-margin-bottom="0"
     inkscape:pagecheckerboard="true"
     guidetolerance="4"
     objecttolerance="2" />
  <metadata
     id="metadata964">
    <rdf:RDF>
      <cc:Work
         rdf:about="">
        <dc:format>image/svg+xml</dc:format>
        <dc:type
           rdf:resource="http://purl.org/dc/dcmitype/StillImage" />
        <dc:title></dc:title>
      </cc:Work>
    </rdf:RDF>
  </metadata>
  <g
     inkscape:label="Layer 1"
     inkscape:groupmode="layer"
     id="layer1"
     transform="translate(17914.38,15150.597)">
    <ellipse
       style="fill:#ab5b02;fill-opacity:1;stroke:#ab5b02;stroke-width:11.8530798;stroke-miterlimit:4;stroke-dasharray:none;stroke-opacity:1"
       id="path4615-4"
       cx="-17789.123"
       cy="-14902.197"
       rx="90.063934"
       ry="11.666734" />
    <ellipse
       style="fill:#ab5b02;fill-opacity:1;stroke:#ab5b02;stroke-width:11.8530798;stroke-miterlimit:4;stroke-dasharray:none;stroke-opacity:1"
       id="path4615"
       cx="-17789.766"
       cy="-14909.333"
       rx="90.063934"
       ry="11.666734" />
    <path
       style="fill:#000000;fill-opacity:1;stroke:#ffffff;stroke-width:12.63239384;stroke-linecap:round;stroke-linejoin:round;stroke-miterlimit:4;stroke-dasharray:none;stroke-opacity:1"
       id="path4627-77-5-0"
       d="m -17828.082,-15095.861 c 1.317,-0.06 2.653,0.04 3.992,0.177 1.607,0.254 3.225,0.514 4.823,1.019 0.986,0.263 1.962,0.595 2.936,0.946 0.598,0.198 1.164,0.533 1.704,0.914 0.647,0.423 1.159,0.999 1.616,1.649 0.32,0.502 0.643,1.012 0.848,1.571 0.1,0.272 0.205,0.697 0.28,0.972 0.256,1.087 0.232,2.157 0.128,3.199 -0.143,1.521 -0.549,2.948 -0.991,4.344 -0.49,1.49 -1.151,2.88 -1.853,4.235 -0.795,1.539 -0.231,0.455 -1.811,3.402 -0.101,0.176 -0.185,0.345 -0.276,0.516 -0.09,0.159 -0.343,0.636 -0.258,0.476 1.057,-1.967 1.255,-2.474 0.796,-1.383 -0.27,0.848 -0.539,1.696 -0.708,2.593 -0.149,0.789 -0.149,1.623 -0.09,2.462 0.06,0.681 0.305,1.331 0.594,1.971 0.364,0.857 0.974,1.539 1.614,2.187 1.178,1.16 2.488,2.109 3.828,2.99 1.045,0.701 2.164,1.199 3.245,1.798 0,0 -1.214,2.371 -1.214,2.371 v 0 c -1.07,-0.638 -2.164,-1.215 -3.211,-1.908 -1.35,-0.903 -2.682,-1.855 -3.911,-2.969 -0.678,-0.644 -1.35,-1.331 -1.749,-2.209 -0.31,-0.665 -0.603,-1.344 -0.681,-2.056 -0.08,-0.864 -0.1,-1.727 0.04,-2.546 0.135,-0.921 0.415,-1.769 0.667,-2.64 0.545,-1.441 0.124,-0.382 1.614,-3.213 0.08,-0.157 0.167,-0.308 0.252,-0.463 0.09,-0.163 0.363,-0.671 0.274,-0.5 -0.291,0.575 -0.591,1.14 -0.887,1.708 -0.108,0.205 0.215,-0.413 0.32,-0.619 0.719,-1.345 1.385,-2.734 1.896,-4.215 0.446,-1.363 0.853,-2.763 0.998,-4.256 0.114,-1.005 0.14,-2.03 -0.06,-3.086 -0.03,-0.141 -0.204,-0.785 -0.254,-0.928 -0.191,-0.534 -0.483,-1.034 -0.796,-1.509 -0.429,-0.617 -0.901,-1.174 -1.521,-1.562 -0.524,-0.352 -1.068,-0.671 -1.637,-0.884 -0.953,-0.39 -1.914,-0.724 -2.882,-1.023 -1.571,-0.515 -3.164,-0.815 -4.749,-1.039 -1.359,-0.121 -2.733,-0.209 -4.027,0.06 0,0 1.085,-2.543 1.085,-2.543 z"
       inkscape:connector-curvature="0" />
    <path
       style="fill:#b3b3b3;fill-opacity:1;stroke:#ffffff;stroke-width:16.56451607;stroke-linecap:round;stroke-linejoin:round;stroke-miterlimit:4;stroke-dasharray:none;stroke-opacity:1"
       id="path4627-77-5-0-9"
       d="m -17769.392,-15136.136 c 2.113,0.691 4.319,1.634 6.545,2.653 2.705,1.354 5.429,2.722 8.214,4.458 1.699,1 3.409,2.096 5.122,3.222 1.046,0.667 2.091,1.524 3.112,2.439 1.211,1.045 2.257,2.243 3.245,3.526 0.709,0.973 1.426,1.959 1.971,2.95 0.261,0.482 0.594,1.205 0.82,1.678 0.826,1.843 1.192,3.493 1.416,5.05 0.34,2.282 0.222,4.258 0.03,6.166 -0.233,2.025 -0.781,3.793 -1.41,5.481 -0.708,1.921 -0.202,0.57 -1.654,4.212 -0.1,0.213 -0.172,0.423 -0.255,0.635 -0.08,0.196 -0.316,0.785 -0.237,0.588 0.973,-2.428 1.102,-3.099 0.769,-1.676 -0.118,1.158 -0.236,2.317 -0.171,3.608 0.06,1.141 0.371,2.436 0.795,3.781 0.342,1.089 0.999,2.252 1.707,3.418 0.915,1.551 2.164,2.975 3.446,4.364 2.35,2.506 4.836,4.764 7.343,6.933 1.962,1.712 3.965,3.153 5.946,4.728 0,0 -1.076,2.963 -1.076,2.963 v 0 c -1.978,-1.63 -3.969,-3.179 -5.932,-4.88 -2.53,-2.207 -5.052,-4.483 -7.469,-6.95 -1.343,-1.404 -2.693,-2.873 -3.673,-4.475 -0.753,-1.22 -1.486,-2.452 -1.881,-3.602 -0.472,-1.399 -0.811,-2.744 -0.895,-3.935 -0.128,-1.353 0,-2.506 0.09,-3.709 0.34,-1.917 0.06,-0.522 1.404,-4.035 0.08,-0.193 0.156,-0.38 0.235,-0.57 0.08,-0.204 0.336,-0.827 0.257,-0.613 -0.255,0.719 -0.529,1.419 -0.795,2.126 -0.1,0.256 0.191,-0.515 0.285,-0.772 0.66,-1.663 1.217,-3.425 1.487,-5.423 0.209,-1.854 0.341,-3.789 0.02,-6.023 -0.195,-1.497 -0.54,-3.076 -1.264,-4.835 -0.1,-0.235 -0.626,-1.343 -0.762,-1.595 -0.51,-0.944 -1.174,-1.895 -1.862,-2.821 -0.929,-1.215 -1.904,-2.364 -3.059,-3.337 -0.982,-0.859 -1.986,-1.678 -2.99,-2.35 -1.693,-1.172 -3.379,-2.265 -5.063,-3.309 -2.746,-1.736 -5.444,-3.152 -8.1,-4.446 -2.253,-0.999 -4.517,-1.956 -6.516,-2.312 0,0 0.8,-3.309 0.8,-3.309 z"
       inkscape:connector-curvature="0" />
    <path
       style="fill:#000000;fill-opacity:1;stroke:#ffffff;stroke-width:16.82584;stroke-linecap:round;stroke-linejoin:round;stroke-miterlimit:4;stroke-dasharray:none;stroke-opacity:1"
       id="path4627-77-5-0-9-4"
       d="m -17796.705,-15114.897 c 1.357,0.408 2.759,1.014 4.17,1.678 1.708,0.9 3.424,1.812 5.158,3.013 1.063,0.686 2.124,1.449 3.188,2.236 0.651,0.461 1.287,1.079 1.904,1.745 0.734,0.755 1.35,1.646 1.921,2.608 0.405,0.735 0.815,1.476 1.11,2.236 0.143,0.369 0.314,0.926 0.434,1.291 0.426,1.427 0.558,2.725 0.603,3.963 0.08,1.81 -0.137,3.408 -0.39,4.955 -0.29,1.646 -0.773,3.104 -1.304,4.506 -0.597,1.593 -0.171,0.472 -1.379,3.501 -0.08,0.178 -0.142,0.352 -0.211,0.529 -0.07,0.162 -0.263,0.652 -0.198,0.489 0.809,-2.02 0.94,-2.57 0.624,-1.402 -0.157,0.939 -0.311,1.879 -0.355,2.914 -0.04,0.914 0.08,1.933 0.275,2.986 0.155,0.851 0.513,1.741 0.907,2.629 0.503,1.182 1.238,2.241 1.996,3.269 1.395,1.851 2.894,3.492 4.415,5.063 1.19,1.24 2.423,2.26 3.634,3.389 0,0 -0.913,2.457 -0.913,2.457 v 0 c -1.204,-1.173 -2.424,-2.28 -3.614,-3.511 -1.533,-1.6 -3.057,-3.254 -4.497,-5.069 -0.798,-1.035 -1.597,-2.123 -2.14,-3.343 -0.42,-0.927 -0.825,-1.868 -1.009,-2.766 -0.221,-1.093 -0.356,-2.151 -0.332,-3.101 0,-1.079 0.17,-2.015 0.305,-2.988 0.354,-1.566 0.08,-0.425 1.202,-3.343 0.07,-0.161 0.128,-0.317 0.193,-0.475 0.07,-0.168 0.279,-0.689 0.213,-0.511 -0.217,0.595 -0.446,1.178 -0.67,1.765 -0.08,0.212 0.161,-0.427 0.241,-0.641 0.549,-1.383 1.036,-2.839 1.35,-4.462 0.261,-1.506 0.479,-3.07 0.41,-4.846 -0.03,-1.189 -0.153,-2.434 -0.515,-3.799 -0.05,-0.182 -0.327,-1.036 -0.4,-1.229 -0.276,-0.723 -0.654,-1.442 -1.049,-2.138 -0.536,-0.913 -1.108,-1.768 -1.809,-2.472 -0.595,-0.622 -1.207,-1.212 -1.83,-1.68 -1.046,-0.827 -2.092,-1.588 -3.142,-2.31 -1.708,-1.206 -3.406,-2.156 -5.083,-3.011 -1.43,-0.647 -2.87,-1.259 -4.174,-1.407 0,0 0.753,-2.716 0.753,-2.716 z"
       inkscape:connector-curvature="0" />
    <ellipse
       style="fill:#ffffff;fill-opacity:1;stroke:#ffffff;stroke-width:0.20242256;stroke-linecap:round;stroke-linejoin:miter;stroke-miterlimit:4;stroke-dasharray:none;stroke-opacity:1"
       id="path2544"
       cx="-17849.254"
       cy="-15071.399"
       rx="12.746754"
       ry="9.5371284" />
    <ellipse
       style="fill:#803300;fill-opacity:1;stroke:#803300;stroke-width:8.8710804;stroke-miterlimit:4;stroke-dasharray:none;stroke-opacity:1"
       id="path4615-7"
       cx="-17790.918"
       cy="-14910.204"
       rx="67.405655"
       ry="8.731616" />
    <path
       style="fill:#aa4400;fill-opacity:1;stroke:#ab5b02;stroke-width:57.08563995;stroke-miterlimit:4;stroke-dasharray:none;stroke-opacity:1"
       d="M 86.990234 388.92188 C 97.147264 634.37175 212.9593 816.82708 368.88086 868.28516 L 280.93945 868.28516 C 280.18733 868.28516 279.58203 868.87627 279.58203 869.61328 L 279.58203 898.41211 C 279.58203 899.14534 280.19867 899.5871 280.93945 899.73828 C 410.98922 922.41545 533.37509 918.9345 651.16406 899.73828 C 651.90863 899.61356 652.51953 899.14534 652.51953 898.41211 L 652.51953 869.61328 C 652.51953 868.87627 651.91997 868.28516 651.16406 868.28516 L 551.63867 868.28516 C 617.08162 846.97472 676.40781 803.19756 724.18359 741.78516 A 107.84643 252.48231 65.235769 0 0 858.74219 690.36133 A 107.84643 252.48231 65.235769 0 0 1003.5605 489.65625 A 107.84643 252.48231 65.235769 0 0 833.61523 475.73828 C 838.04879 447.81629 840.9569 418.83917 842.19531 388.92188 C 462.99531 478.96534 284.29669 424.01479 86.990234 388.92188 z "
       id="path4617"
       transform="matrix(0.26458333,0,0,0.26458333,-17914.38,-15150.597)" />
  </g>
</svg>
